
<svg id="z12371" class="jozu" version="1.1" viewBox="0 0 1024 1024" xmlns="http://www.w3.org/2000/svg" xmlns:xlink="http://www.w3.org/1999/xlink">

<path id="z12371d1" d="M474 192C411 193 348 195 286 208C279 210 271 217 274 225C278 238 292 243 304 247C323 252 342 245 360 244C408 239 455 233 502 241C530 246 558 252 584 262C588 263 593 266 596 269C587 275 576 279 566 285C547 296 528 307 510 320C504 325 506 337 515 338C529 339 542 330 556 327C597 313 642 303 686 307C701 308 719 310 731 299C739 291 737 278 731 270C719 251 699 238 680 227C636 203 585 197 535 193C515 192 495 192 474 192Z"></path>
<path id="z12371d2" d="M247 623C237 625 236 636 233 645C227 678 231 713 244 744C254 767 272 785 292 799C344 838 408 855 472 864C559 877 648 879 736 878C753 877 771 876 786 867C796 861 800 847 794 837C784 816 761 805 740 800C723 796 705 801 688 802C604 809 519 809 435 796C388 787 341 774 301 748C283 736 266 720 262 698C256 675 259 652 255 629C254 625 251 622 247 623Z"></path>
<defs>
	<clipPath id="z12371c1"><use xlink:href="#z12371d1"></use></clipPath>
	<clipPath id="z12371c2"><use xlink:href="#z12371d2"></use></clipPath>
</defs>
<path style="--d:1s;" pathLength="3333" clip-path="url(#z12371c1)" d="M 288,222 318,227 536,214 678,254 715,283 630,280 518,327"></path>
<path style="--d:2s;" pathLength="3333" clip-path="url(#z12371c2)" d="M 248,635 245,714 312,792 511,840 704,838 783,851"></path>
<g visibility="var(--visibilty)"><circle cx="307.7278784766429" cy="225.28797974610714" r="40" stroke="#000" fill="#fff" stroke-width="5"></circle><text x="307.7278784766429" y="245.28797974610714" text-anchor="middle" font-family="arial" font-weight="normal" fill="#000" font-size="60">1</text><circle cx="247.24105336155958" cy="654.9855948122641" r="40" stroke="#000" fill="#fff" stroke-width="5"></circle><text x="247.24105336155958" y="674.9855948122641" text-anchor="middle" font-family="arial" font-weight="normal" fill="#000" font-size="60">2</text></g></svg>

