
<svg id="z12495" class="jozu" version="1.1" viewBox="0 0 1024 1024" xmlns="http://www.w3.org/2000/svg" xmlns:xlink="http://www.w3.org/1999/xlink">

<path id="z12495d1" d="M328 340C318 354 322 383 302 425C258 516 204 587 131 653C77 703 113 705 150 679C292 581 355 487 415 445C463 410 420 379 409 367C386 345 353 307 328 340Z"></path>
<path id="z12495d2" d="M613 373C689 449 749 527 794 625C808 663 846 704 889 678C929 643 886 578 859 541C789 451 715 397 620 334C573 302 562 322 613 373Z"></path>
<defs>
	<clipPath id="z12495c1"><use xlink:href="#z12495d1"></use></clipPath>
	<clipPath id="z12495c2"><use xlink:href="#z12495d2"></use></clipPath>
</defs>
<path style="--d:1s;" pathLength="3333" clip-path="url(#z12495c1)" d="M 348,340 372,421 253,581 128,678.9"></path>
<path style="--d:2s;" pathLength="3333" clip-path="url(#z12495c2)" d="M 591,326 835,548 875,674.5"></path>
<g visibility="visible"><circle cx="353.6817665938275" cy="359.17596225416776" r="40" stroke="#000" fill="#fff" stroke-width="5"></circle><text x="353.6817665938275" y="379.17596225416776" text-anchor="middle" font-family="arial" font-weight="normal" fill="#000" font-size="60">1</text><circle cx="605.7933135101453" cy="339.4594901608699" r="40" stroke="#000" fill="#fff" stroke-width="5"></circle><text x="605.7933135101453" y="359.4594901608699" text-anchor="middle" font-family="arial" font-weight="normal" fill="#000" font-size="60">2</text></g></svg>
