
<svg id="z12498" class="jozu" version="1.1" viewBox="0 0 1024 1024" xmlns="http://www.w3.org/2000/svg" xmlns:xlink="http://www.w3.org/1999/xlink">

<path id="z12498d1" d="M655 389C617 388 582 404 546 415C464 440 377 466 293 480C282 482 280 515 292 515C406 513 525 496 635 465C652 459 670 456 686 447C698 440 711 427 708 412C704 398 687 393 675 391C668 390 662 389 655 389Z"></path>
<path id="z12498d2" d="M213 169C214 182 224 211 225 222C237 316 232 408 228 503C225 577 215 651 221 725C223 751 226 778 238 801C256 836 295 854 331 862C384 874 438 872 492 872C580 873 668 870 754 856C769 853 785 844 791 830C796 820 788 811 781 804C753 778 709 771 673 784C601 811 523 817 447 815C416 814 383 812 352 806C321 799 298 771 290 741C283 716 285 690 285 665C286 613 290 566 292 515C293 492 293 492 293 480C294 421 299 357 308 300C312 274 322 249 329 224C333 210 320 198 309 191C288 175 263 165 237 159C221 155 212 162 213 169Z"></path>
<defs>
	<clipPath id="z12498c1"><use xlink:href="#z12498d1"></use></clipPath>
	<clipPath id="z12498c2"><use xlink:href="#z12498d2"></use></clipPath>
</defs>
<path style="--d:1s;" pathLength="3333" clip-path="url(#z12498c1)" d="M 301,505 702,410"></path>
<path style="--d:2s;" pathLength="3333" clip-path="url(#z12498c2)" d="M 222,169 269,217 267,775 360,834 789,822"></path>
<g visibility="var(--visibility)"><circle cx="320.4613192940536" cy="500.3894630101369" r="40" stroke="#000" fill="#fff" stroke-width="5"></circle><text x="320.4613192940536" y="520.389463010137" text-anchor="middle" font-family="arial" font-weight="normal" fill="#000" font-size="60">1</text><circle cx="235.99249585216427" cy="183.2902085298699" r="40" stroke="#000" fill="#fff" stroke-width="5"></circle><text x="235.99249585216427" y="203.2902085298699" text-anchor="middle" font-family="arial" font-weight="normal" fill="#000" font-size="60">2</text></g></svg>
