
<svg id="z12510" class="jozu" version="1.1" viewBox="0 0 1024 1024" xmlns="http://www.w3.org/2000/svg" xmlns:xlink="http://www.w3.org/1999/xlink">

<path id="z12510d1" d="M793 192C740 192 698 212 445 266C341 287 263 305 151 305C128 305 87 305 118 332C164 370 214 373 272 357C414 315 594 278 729 272C755 270 753 300 742 317C677 414 576 509 485 584C471 595 509 637 522 624C547 599 782 375 894 307C916 292 907 273 892 258C837 201 844 192 793 192Z"></path>
<path id="z12510d2" d="M485 584C453 550 406 509 370 484C325 453 289 440 343 504C418 592 467 692 529 791C545 816 589 841 592 801C596 747 557 661 522 624C497 597 497 597 485 584Z"></path>
<defs>
	<clipPath id="z12510c1"><use xlink:href="#z12510d1"></use></clipPath>
	<clipPath id="z12510c2"><use xlink:href="#z12510d2"></use></clipPath>
</defs>
<path style="--d:1s;" pathLength="3333" clip-path="url(#z12510c1)" d="M 126,320 208,341 773,226 849,286 515,587"></path>
<path style="--d:2s;" pathLength="3333" clip-path="url(#z12510c2)" d="M 331,476 438,582 578,816"></path>
<g visibility="var(--visibility)"><circle cx="145.37473408862388" cy="324.96182214464756" r="40" stroke="#000" fill="#fff" stroke-width="5"></circle><text x="145.37473408862388" y="344.96182214464756" text-anchor="middle" font-family="arial" font-weight="normal" fill="#000" font-size="60">1</text><circle cx="345.2083740407113" cy="490.07558549827473" r="40" stroke="#000" fill="#fff" stroke-width="5"></circle><text x="345.2083740407113" y="510.07558549827473" text-anchor="middle" font-family="arial" font-weight="normal" fill="#000" font-size="60">2</text></g></svg>
