
<svg id="z12511" class="jozu" version="1.1" viewBox="0 0 1024 1024" xmlns="http://www.w3.org/2000/svg" xmlns:xlink="http://www.w3.org/1999/xlink">

<path id="z12511d1" d="M403 172C472 221 537 288 596 308C636 322 638 263 619 235C598 202 483 163 414 138C373 124 314 108 403 172Z"></path>
<path id="z12511d2" d="M387 430C454 476 531 562 597 584C639 598 633 524 609 499C576 465 477 430 402 404C354 386 328 389 387 430Z"></path>
<path id="z12511d3" d="M371 697C441 750 543 854 619 895C665 920 672 835 643 802C604 757 502 714 368 652C332 636 298 642 342 676C361 690 361 690 371 697Z"></path>
<defs>
	<clipPath id="z12511c1"><use xlink:href="#z12511d1"></use></clipPath>
	<clipPath id="z12511c2"><use xlink:href="#z12511d2"></use></clipPath>
	<clipPath id="z12511c3"><use xlink:href="#z12511d3"></use></clipPath>
</defs>
<path style="--d:1s;" pathLength="3333" clip-path="url(#z12511c1)" d="M 367,134 576,243 607,302"></path>
<path style="--d:2s;" pathLength="3333" clip-path="url(#z12511c2)" d="M 367,404 577,504 609,580"></path>
<path style="--d:3s;" pathLength="3333" clip-path="url(#z12511c3)" d="M 331,655 619,827 638,887"></path>
<g visibility="visible"><circle cx="384.73320957582877" cy="143.24842030509728" r="40" stroke="#000" fill="#fff" stroke-width="5"></circle><text x="384.73320957582877" y="163.24842030509728" text-anchor="middle" font-family="arial" font-weight="normal" fill="#000" font-size="60">1</text><circle cx="385.0572103764786" cy="412.59867160784694" r="40" stroke="#000" fill="#fff" stroke-width="5"></circle><text x="385.0572103764786" y="432.59867160784694" text-anchor="middle" font-family="arial" font-weight="normal" fill="#000" font-size="60">2</text><circle cx="348.17086538133645" cy="665.2548223805204" r="40" stroke="#000" fill="#fff" stroke-width="5"></circle><text x="348.17086538133645" y="685.2548223805204" text-anchor="middle" font-family="arial" font-weight="normal" fill="#000" font-size="60">3</text></g></svg>
