
<svg id="z12512" class="jozu" version="1.1" viewBox="0 0 1024 1024" xmlns="http://www.w3.org/2000/svg" xmlns:xlink="http://www.w3.org/1999/xlink">

<path id="z12512d1" d="M458 258C462 311 277 638 154 735C137 747 126 759 142 781C163 808 188 844 216 836C394 784 581 740 763 699C782 695 756 640 737 646C617 682 455 721 335 737C313 739 252 740 272 709C320 628 467 401 514 343C531 322 552 303 566 294C610 262 538 219 511 202C440 154 454 217 458 258Z"></path>
<path id="z12512d2" d="M685 540C671 539 681 554 699 581C708 595 722 617 737 646C754 681 754 681 763 699C774 722 791 767 797 778C813 812 872 828 880 791C886 760 857 694 815 643C791 613 765 592 735 568C710 548 693 540 685 540Z"></path>
<defs>
	<clipPath id="z12512c1"><use xlink:href="#z12512d1"></use></clipPath>
	<clipPath id="z12512c2"><use xlink:href="#z12512d2"></use></clipPath>
</defs>
<path style="--d:1s;" pathLength="3333" clip-path="url(#z12512c1)" d="M 476,203 526,270 188,762 218,795 738,686"></path>
<path style="--d:2s;" pathLength="3333" clip-path="url(#z12512c2)" d="M 692,558 834,726 847,793"></path>
<g visibility="var(--visibilty)"><circle cx="487.9616882578491" cy="219.02866226551782" r="40" stroke="#000" fill="#fff" stroke-width="5"></circle><text x="487.9616882578491" y="239.02866226551782" text-anchor="middle" font-family="arial" font-weight="normal" fill="#000" font-size="60">1</text><circle cx="704.9106915072549" cy="573.2746209381606" r="40" stroke="#000" fill="#fff" stroke-width="5"></circle><text x="704.9106915072549" y="593.2746209381606" text-anchor="middle" font-family="arial" font-weight="normal" fill="#000" font-size="60">2</text></g></svg>
