
<svg id="z12514" class="jozu" version="1.1" viewBox="0 0 1024 1024" xmlns="http://www.w3.org/2000/svg" xmlns:xlink="http://www.w3.org/1999/xlink">

<path id="z12514d1" d="M678 170C615 167 547 217 356 227C323 229 300 228 283 229C205 233 303 280 337 283C354 285 383 283 415 279C415 279 414 279 415 279C449 274 449 274 466 271C610 251 714 219 723 206C742 180 700 171 678 170Z"></path>
<path id="z12514d2" d="M122 545C80 549 151 610 191 612C244 613 260 605 316 591C377 576 668 513 871 511C940 510 888 458 869 448C808 417 752 449 692 464C635 478 396 524 122 545Z"></path>
<path id="z12514d3" d="M415 279C419 291 424 303 425 315C427 417 427 657 427 683C428 728 441 805 499 834C574 872 654 881 734 878C763 877 818 868 817 844C817 811 736 794 689 808C638 823 578 811 527 782C499 766 489 725 488 679C488 641 482 355 492 313C497 291 471 279 466 271C454 259 409 263 415 279Z"></path>
<defs>
	<clipPath id="z12514c1"><use xlink:href="#z12514d1"></use></clipPath>
	<clipPath id="z12514c2"><use xlink:href="#z12514d2"></use></clipPath>
	<clipPath id="z12514c3"><use xlink:href="#z12514d3"></use></clipPath>
</defs>
<path style="--d:1s;" pathLength="3333" clip-path="url(#z12514c1)" d="M 269,248 347,258 717,195"></path>
<path style="--d:2s;" pathLength="3333" clip-path="url(#z12514c2)" d="M 129,559 199,580 816,475 898,497"></path>
<path style="--d:3s;" pathLength="3333" clip-path="url(#z12514c3)" d="M 459,289 475,775 574,847 806,842"></path>
<g visibility="visible"><circle cx="288.83763329371703" cy="250.5432863197073" r="40" stroke="#000" fill="#fff" stroke-width="5"></circle><text x="288.83763329371703" y="270.5432863197073" text-anchor="middle" font-family="arial" font-weight="normal" fill="#000" font-size="60">1</text><circle cx="148.15652570442302" cy="564.7469577113269" r="40" stroke="#000" fill="#fff" stroke-width="5"></circle><text x="148.15652570442302" y="584.7469577113269" text-anchor="middle" font-family="arial" font-weight="normal" fill="#000" font-size="60">2</text><circle cx="459.6580796821815" cy="308.9891703462625" r="40" stroke="#000" fill="#fff" stroke-width="5"></circle><text x="459.6580796821815" y="328.9891703462625" text-anchor="middle" font-family="arial" font-weight="normal" fill="#000" font-size="60">3</text></g></svg>
