
<svg id="z12516" class="jozu" version="1.1" viewBox="0 0 1024 1024" xmlns="http://www.w3.org/2000/svg" xmlns:xlink="http://www.w3.org/1999/xlink">

<path id="z12516d1" d="M346 387C281 407 213 423 146 432C35 445 151 495 206 487C241 482 333 448 572 367C625 349 710 320 748 322C771 324 783 353 767 372C746 398 721 422 707 437C635 515 672 496 746 453C805 418 861 390 916 349C935 335 901 307 887 296C846 263 813 232 742 265C665 302 407 369 346 387Z"></path>
<path id="z12516d2" d="M371 151C391 171 398 189 401 204C416 269 442 472 445 492C478 791 460 780 470 823C478 862 502 925 527 924C557 922 547 847 543 810C528 672 471 292 468 268C461 215 470 176 468 141C465 109 428 103 384 98C312 90 353 133 371 151Z"></path>
<defs>
	<clipPath id="z12516c1"><use xlink:href="#z12516d1"></use></clipPath>
	<clipPath id="z12516c2"><use xlink:href="#z12516d2"></use></clipPath>
</defs>
<path style="--d:1s;" pathLength="3333" clip-path="url(#z12516c1)" d="M 107,447 195,455 802,275 868,327 688,475"></path>
<path style="--d:2s;" pathLength="3333" clip-path="url(#z12516c2)" d="M 365,110 433,155 525,904"></path>
<g visibility="visible"><circle cx="126.91786412935407" cy="448.8107149208504" r="40" stroke="#000" fill="#fff" stroke-width="5"></circle><text x="126.91786412935407" y="468.8107149208504" text-anchor="middle" font-family="arial" font-weight="normal" fill="#000" font-size="60">1</text><circle cx="381.6786441145308" cy="121.0373380169689" r="40" stroke="#000" fill="#fff" stroke-width="5"></circle><text x="381.6786441145308" y="141.0373380169689" text-anchor="middle" font-family="arial" font-weight="normal" fill="#000" font-size="60">2</text></g></svg>
