
<svg id="z12520" class="jozu" version="1.1" viewBox="0 0 1024 1024" xmlns="http://www.w3.org/2000/svg" xmlns:xlink="http://www.w3.org/1999/xlink">

<path id="z12520d1" d="M701 190C697 190 694 190 690 191C555 225 377 276 258 262C205 256 240 291 250 298C284 321 301 328 334 322C440 304 543 264 652 265C689 265 698 313 695 335C693 353 683 455 683 461C678 501 678 501 676 521C665 613 652 706 640 740C631 763 709 776 713 752C727 648 728 532 748 429C758 378 776 328 805 286C814 272 773 240 744 215C735 206 721 191 701 190Z"></path>
<path id="z12520d2" d="M683 461C644 471 364 520 275 515C244 513 246 529 264 546C310 588 357 578 432 561C521 542 574 532 676 521C696 518 703 457 683 461Z"></path>
<path id="z12520d3" d="M243 795C173 792 213 825 236 837C245 843 268 853 289 851C410 840 573 809 641 820C704 830 726 833 742 817C766 794 747 769 713 752C692 739 664 735 640 740C559 760 336 799 243 795Z"></path>
<defs>
	<clipPath id="z12520c1"><use xlink:href="#z12520d1"></use></clipPath>
	<clipPath id="z12520c2"><use xlink:href="#z12520d2"></use></clipPath>
	<clipPath id="z12520c3"><use xlink:href="#z12520d3"></use></clipPath>
</defs>
<path style="--d:1s;" pathLength="3333" clip-path="url(#z12520c1)" d="M 243,270 308,295 684,217 746,290 681,721"></path>
<path style="--d:2s;" pathLength="3333" clip-path="url(#z12520c2)" d="M 262,536 308,551 678,471"></path>
<path style="--d:3s;" pathLength="3333" clip-path="url(#z12520c3)" d="M 215,803 279,828 590,768 740,803"></path>
<g visibility="var(--visibility)"><circle cx="261.6669121240612" cy="277.1795815861774" r="40" stroke="#000" fill="#fff" stroke-width="5"></circle><text x="261.6669121240612" y="297.1795815861774" text-anchor="middle" font-family="arial" font-weight="normal" fill="#000" font-size="60">1</text><circle cx="281.0145967896296" cy="542.2004119966183" r="40" stroke="#000" fill="#fff" stroke-width="5"></circle><text x="281.0145967896296" y="562.2004119966183" text-anchor="middle" font-family="arial" font-weight="normal" fill="#000" font-size="60">2</text><circle cx="233.62914698959239" cy="810.2770105428095" r="40" stroke="#000" fill="#fff" stroke-width="5"></circle><text x="233.62914698959239" y="830.2770105428095" text-anchor="middle" font-family="arial" font-weight="normal" fill="#000" font-size="60">3</text></g></svg>
