
<svg id="z12521" class="jozu" version="1.1" viewBox="0 0 1024 1024" xmlns="http://www.w3.org/2000/svg" xmlns:xlink="http://www.w3.org/1999/xlink">

<path id="z12521d1" d="M640 136C577 140 534 171 294 199C278 201 255 212 280 225C346 258 425 243 493 226C587 203 697 189 729 175C744 167 726 131 640 136Z"></path>
<path id="z12521d2" d="M742 343C634 359 369 433 167 448C110 452 151 477 165 486C189 501 219 507 246 505C313 500 485 439 690 414C733 408 746 435 735 463C697 558 622 649 556 727C523 766 501 790 457 828C356 914 368 927 462 864C591 778 702 669 789 542C811 510 832 486 855 458C884 422 847 398 815 370C781 340 763 339 742 343Z"></path>
<defs>
	<clipPath id="z12521c1"><use xlink:href="#z12521d1"></use></clipPath>
	<clipPath id="z12521c2"><use xlink:href="#z12521d2"></use></clipPath>
</defs>
<path style="--d:1s;" pathLength="3333" clip-path="url(#z12521c1)" d="M 283,217 357,222 725,166"></path>
<path style="--d:2s;" pathLength="3333" clip-path="url(#z12521c2)" d="M 150,463 230,477 760,374 813,434 610,723 401,895"></path>
<g visibility="var(--visibilty)"><circle cx="302.95450196572784" cy="218.34827715984648" r="40" stroke="#000" fill="#fff" stroke-width="5"></circle><text x="302.95450196572784" y="238.34827715984648" text-anchor="middle" font-family="arial" font-weight="normal" fill="#000" font-size="60">1</text><circle cx="169.70060934311408" cy="466.44760663504496" r="40" stroke="#000" fill="#fff" stroke-width="5"></circle><text x="169.70060934311408" y="486.44760663504496" text-anchor="middle" font-family="arial" font-weight="normal" fill="#000" font-size="60">2</text></g></svg>
