
<svg id="z12525" class="jozu" version="1.1" viewBox="0 0 1024 1024" xmlns="http://www.w3.org/2000/svg" xmlns:xlink="http://www.w3.org/1999/xlink">

<path id="z12525d1" d="M272 296C251 282 229 271 207 265C183 263 184 282 192 293C235 367 260 493 268 669C269 700 273 725 282 747C290 765 302 780 319 793C335 795 344 769 349 753C353 736 339 700 339 700C315 558 302 444 297 347C297 328 287 307 272 296Z"></path>
<path id="z12525d2" d="M738 663C764 501 794 395 842 345C860 326 861 307 845 286C829 272 802 251 749 223C731 215 710 215 688 223C572 263 433 287 272 296C253 296 278 350 297 347C304 346 541 311 644 296C672 291 700 295 711 308C727 323 733 347 730 381C716 483 692 574 670 654C666 676 734 685 738 663Z"></path>
<path id="z12525d3" d="M349 753C466 737 599 718 759 720C768 719 774 715 776 706C777 699 764 684 738 663C720 649 692 650 670 654C562 677 455 692 339 700C321 700 331 757 349 753Z"></path>
<defs>
	<clipPath id="z12525c1"><use xlink:href="#z12525d1"></use></clipPath>
	<clipPath id="z12525c2"><use xlink:href="#z12525d2"></use></clipPath>
	<clipPath id="z12525c3"><use xlink:href="#z12525d3"></use></clipPath>
</defs>
<path style="--d:1s;" pathLength="3333" clip-path="url(#z12525c1)" d="M 193,275 264,364 321,759.8"></path>
<path style="--d:2s;" pathLength="3333" clip-path="url(#z12525c2)" d="M 283,302 324,318 711,256 797,315 695,656.9"></path>
<path style="--d:3s;" pathLength="3333" clip-path="url(#z12525c3)" d="M 354,745 372,723 638,691 771,701"></path>
<g visibility="visible"><circle cx="205.47246620391647" cy="290.6344998894164" r="40" stroke="#000" fill="#fff" stroke-width="5"></circle><text x="205.47246620391647" y="310.6344998894164" text-anchor="middle" font-family="arial" font-weight="normal" fill="#000" font-size="60">1</text><circle cx="301.6315523897012" cy="309.27084971305413" r="40" stroke="#000" fill="#fff" stroke-width="5"></circle><text x="301.6315523897012" y="329.27084971305413" text-anchor="middle" font-family="arial" font-weight="normal" fill="#000" font-size="60">2</text><circle cx="366.66475580514526" cy="729.5208540159335" r="40" stroke="#000" fill="#fff" stroke-width="5"></circle><text x="366.66475580514526" y="749.5208540159335" text-anchor="middle" font-family="arial" font-weight="normal" fill="#000" font-size="60">3</text></g></svg>
