
<svg id="z12527" class="jozu" version="1.1" viewBox="0 0 1024 1024" xmlns="http://www.w3.org/2000/svg" xmlns:xlink="http://www.w3.org/1999/xlink">

<path id="z12527d1" d="M184 239C178 239 168 242 169 251C169 271 178 289 183 308C191 346 196 386 200 424C203 456 209 491 230 515C237 523 247 532 258 536C265 538 271 532 272 523C275 492 272 460 266 430C257 383 249 364 242 317C239 302 243 283 234 271C223 255 203 239 184 239Z"></path>
<path id="z12527d2" d="M725 158C701 163 679 174 657 182C576 210 358 263 234 271C218 271 226 317 242 317C338 314 392 297 442 286C547 260 685 235 712 246C724 251 732 259 735 272C739 291 731 312 726 330C706 388 689 436 663 489C605 603 567 683 374 892C348 918 349 938 384 915C554 803 655 642 679 600C719 528 744 458 780 384C792 358 806 331 826 310C834 301 845 290 846 277C846 257 832 239 822 227C800 199 774 176 745 162C738 159 731 156 725 158Z"></path>
<defs>
	<clipPath id="z12527c1"><use xlink:href="#z12527d1"></use></clipPath>
	<clipPath id="z12527c2"><use xlink:href="#z12527d2"></use></clipPath>
</defs>
<path style="--d:1s;" pathLength="3333" clip-path="url(#z12527c1)" d="M 182,250 258,524"></path>
<path style="--d:2s;" pathLength="3333" clip-path="url(#z12527c2)" d="M 243,277 326,280 746,188 808,261 579,713 373,914"></path>
<g visibility="var(--visibility)"><circle cx="187.34562149088683" cy="269.27237221714466" r="40" stroke="#000" fill="#fff" stroke-width="5"></circle><text x="187.34562149088683" y="289.27237221714466" text-anchor="middle" font-family="arial" font-weight="normal" fill="#000" font-size="60">1</text><circle cx="262.98694848137114" cy="277.7224198246279" r="40" stroke="#000" fill="#fff" stroke-width="5"></circle><text x="262.98694848137114" y="297.7224198246279" text-anchor="middle" font-family="arial" font-weight="normal" fill="#000" font-size="60">2</text></g></svg>

