
<svg id="z12375" class="jozu" version="1.1" viewBox="0 0 1024 1024" xmlns="http://www.w3.org/2000/svg" xmlns:xlink="http://www.w3.org/1999/xlink">

<path id="z12375d1" d="M281 104C271 104 266 116 271 125C279 141 292 155 293 174C295 223 291 271 288 319C282 444 274 568 274 692C274 740 280 790 301 834C321 875 365 901 409 913C478 932 552 924 618 900C676 878 730 848 781 813C793 804 806 797 816 786C823 780 826 767 818 761C809 755 798 761 790 766C772 777 752 787 732 796C660 829 585 863 504 871C471 874 435 871 404 857C374 844 353 816 343 785C330 745 330 702 331 660C331 612 343 372 373 237C377 218 385 199 379 180C373 163 362 149 348 137C330 120 307 104 281 104Z"></path>
<defs>
	<clipPath id="z12375c1"><use xlink:href="#z12375d1"></use></clipPath>
</defs>
<path style="--d:1s;" pathLength="3333" clip-path="url(#z12375c1)" d="M 287,128 346,192 299,732 328,833 411,894 568,894 674,855 812,770"></path>
<g visibility="var(--visibilty)"><circle cx="300.5560562947853" cy="142.70487462485184" r="40" stroke="#000" fill="#fff" stroke-width="5"></circle><text x="300.5560562947853" y="162.70487462485184" text-anchor="middle" font-family="arial" font-weight="normal" fill="#000" font-size="60">1</text></g></svg>

