
<svg id="z12530" class="jozu" version="1.1" viewBox="0 0 1024 1024" xmlns="http://www.w3.org/2000/svg" xmlns:xlink="http://www.w3.org/1999/xlink">

<path id="z12530d1" d="M731 119C729 119 726 119 724 120C656 135 591 162 521 174C419 191 313 203 211 211C189 213 203 225 208 230C246 264 305 263 354 253C456 231 557 200 660 190C695 187 708 228 703 256C699 286 690 342 666 416C653 450 653 450 647 467C609 564 545 685 437 823C329 959 368 946 467 847C540 774 609 695 659 605C717 503 747 391 787 282C797 252 825 229 829 198C832 173 766 120 731 119Z"></path>
<path id="z12530d2" d="M666 416C564 436 373 482 198 488C177 489 191 504 196 509C214 527 254 550 281 545C393 523 393 514 647 467C665 463 684 412 666 416Z"></path>
<defs>
	<clipPath id="z12530c1"><use xlink:href="#z12530d1"></use></clipPath>
	<clipPath id="z12530c2"><use xlink:href="#z12530d2"></use></clipPath>
</defs>
<path style="--d:1s;" pathLength="3333" clip-path="url(#z12530c1)" d="M 219,228 720,164 781,211 575,688 384,910"></path>
<path style="--d:2s;" pathLength="3333" clip-path="url(#z12530c2)" d="M 202,497 276,513 642,460"></path>
<g visibility="visible"><circle cx="238.8387838611226" cy="225.4657042572618" r="40" stroke="#000" fill="#fff" stroke-width="5"></circle><text x="238.8387838611226" y="245.4657042572618" text-anchor="middle" font-family="arial" font-weight="normal" fill="#000" font-size="60">1</text><circle cx="221.54828330879735" cy="501.2266558505508" r="40" stroke="#000" fill="#fff" stroke-width="5"></circle><text x="221.54828330879735" y="521.2266558505507" text-anchor="middle" font-family="arial" font-weight="normal" fill="#000" font-size="60">2</text></g></svg>
