
<svg id="z12377" class="jozu" version="1.1" viewBox="0 0 1024 1024" xmlns="http://www.w3.org/2000/svg" xmlns:xlink="http://www.w3.org/1999/xlink">

<path id="z12377d1" d="M800 241C771 243 746 258 718 260C573 283 427 299 281 318C250 322 219 327 187 326C165 327 143 326 121 330C114 332 109 338 113 344C119 356 132 362 143 370C162 381 183 390 205 390C223 388 240 379 257 375C402 337 551 327 700 316C745 314 791 312 837 316C855 318 872 323 890 320C903 317 909 299 900 289C888 271 868 260 848 250C833 244 816 241 800 241Z"></path>
<path id="z12377d2a" d="M530 107C520 107 506 106 500 117C496 126 504 140 512 143C528 155 532 176 532 194C533 299 531 393 534 499C534 537 536 575 536 613C533 623 521 626 512 625C487 625 462 618 438 611C421 605 402 595 396 576C390 563 388 548 388 534C388 517 337 517 337 534C337 566 344 603 366 627C390 652 426 661 460 668C490 673 520 679 550 679C565 678 582 677 591 664C599 654 600 641 597 630C584 528 592 427 589 325C588 281 591 248 594 204C596 189 599 175 603 161C606 148 599 136 589 129C572 116 551 107 530 107Z"></path>
<path id="z12377d2b" d="M423 438C392 438 364 459 351 486C344 499 339 518 337 534C334 551 388 551 388 534C389 518 393 502 404 491C421 477 448 482 462 498C488 524 496 563 499 600C503 652 495 707 469 754C438 811 385 854 331 892C323 897 313 903 313 913C313 921 322 925 329 923C344 917 358 909 373 902C418 878 463 851 496 811C537 759 555 691 550 626C547 577 536 527 507 486C490 463 465 443 436 438C432 438 427 438 423 438Z"></path>
<defs>
	<clipPath id="z12377c1"><use xlink:href="#z12377d1"></use></clipPath>
	<clipPath id="z12377c2a"><use xlink:href="#z12377d2a"></use></clipPath>
	<clipPath id="z12377c2b"><use xlink:href="#z12377d2b"></use></clipPath>
</defs>
<path style="--d:1s;" pathLength="3333" clip-path="url(#z12377c1)" d="M 129,345 195,368 468,313 790,275 893,303"></path>
<path style="--d:2s;" pathLength="3333" clip-path="url(#z12377c2a)" d="M 507,119 570,155 561,240 566,663 442,654 380,607 361,526 396,457 446,457 496,493 523,576 521,710 471,828 328,916"></path>
<path style="--d:2s;" pathLength="3333" clip-path="url(#z12377c2b)" d="M 253,119 190,155 199,240 194,663 318,654 380,607 361,526 396,457 446,457 496,493 523,576 521,710 471,828 328,916"></path>
<g visibility="visible"><circle cx="147.886072267438" cy="351.581510032592" r="40" stroke="#000" fill="#fff" stroke-width="5"></circle><text x="147.886072267438" y="371.581510032592" text-anchor="middle" font-family="arial" font-weight="normal" fill="#000" font-size="60">1</text><circle cx="524.3648628424892" cy="128.92277876713666" r="40" stroke="#000" fill="#fff" stroke-width="5"></circle><text x="524.3648628424892" y="148.92277876713666" text-anchor="middle" font-family="arial" font-weight="normal" fill="#000" font-size="60">2</text></g></svg>

