
<svg id="z12474" class="jozu" version="1.1" viewBox="0 0 1024 1024" xmlns="http://www.w3.org/2000/svg" xmlns:xlink="http://www.w3.org/1999/xlink">

<path id="z12474d1" d="M678 176C638 176 603 199 566 212C448 252 350 266 213 291C175 298 230 348 272 350C301 350 329 338 356 328C415 303 510 275 593 257C644 245 651 260 621 315C582 385 521 470 443 558C371 640 284 724 201 800C139 856 152 878 214 837C342 752 438 666 518 578C518 578 518 578 518 578C533 561 533 561 541 552C541 552 541 552 541 552C612 471 669 388 726 302C739 282 762 271 783 260C800 249 763 219 749 209C731 195 699 176 682 176C679 176 679 176 678 176Z"></path>
<path id="z12474d2" d="M518 578C569 614 630 669 670 714C712 760 752 811 803 847C819 858 843 864 860 851C876 839 878 816 873 797C864 759 836 729 807 705C754 660 690 627 629 595C578 569 560 562 541 552C531 546 509 571 518 578Z"></path>
<path id="z12474d3" d="M769 100C760 101 757 116 765 120C779 131 794 140 806 153C827 175 841 203 859 227C866 235 881 239 889 230C900 218 897 201 895 187C892 165 880 143 860 132C837 118 811 110 785 102C780 101 775 101 769 100Z"></path>
<path id="z12474d4" d="M837 32C828 31 825 47 833 51C848 62 865 71 876 86C897 108 911 135 928 160C936 169 952 170 959 159C970 145 965 126 962 110C957 91 946 72 927 63C903 48 875 39 848 32C844 32 841 31 837 32Z"></path>
<defs>
	<clipPath id="z12474c1"><use xlink:href="#z12474d1"></use></clipPath>
	<clipPath id="z12474c2"><use xlink:href="#z12474d2"></use></clipPath>
	<clipPath id="z12474c3"><use xlink:href="#z12474d3"></use></clipPath>
	<clipPath id="z12474c4"><use xlink:href="#z12474d4"></use></clipPath>
</defs>
<path style="--d:1s;" pathLength="3333" clip-path="url(#z12474c1)" d="M 210,304 302,303 667,209 729,253 464,579 174,850"></path>
<path style="--d:2s;" pathLength="3333" clip-path="url(#z12474c2)" d="M 531,579 867,834"></path>
<path style="--d:3s;" pathLength="3333" clip-path="url(#z12474c3)" d="M 764,114 853,158 869,222"></path>
<path style="--d:4s;" pathLength="3333" clip-path="url(#z12474c4)" d="M 833,44 917,90 939,152"></path>
<g visibility="visible"><circle cx="229.99881863020067" cy="303.78262153662826" r="40" stroke="#000" fill="#fff" stroke-width="5"></circle><text x="229.99881863020067" y="323.78262153662826" text-anchor="middle" font-family="arial" font-weight="normal" fill="#000" font-size="60">1</text><circle cx="546.931463306668" cy="591.0908426880962" r="40" stroke="#000" fill="#fff" stroke-width="5"></circle><text x="546.931463306668" y="611.0908426880962" text-anchor="middle" font-family="arial" font-weight="normal" fill="#000" font-size="60">2</text><circle cx="781.9286514428327" cy="122.86360296050157" r="40" stroke="#000" fill="#fff" stroke-width="5"></circle><text x="781.9286514428327" y="142.86360296050157" text-anchor="middle" font-family="arial" font-weight="normal" fill="#000" font-size="60">3</text><circle cx="850.54192535683" cy="53.60629245731169" r="40" stroke="#000" fill="#fff" stroke-width="5"></circle><text x="850.54192535683" y="73.6062924573117" text-anchor="middle" font-family="arial" font-weight="normal" fill="#000" font-size="60">4</text></g></svg>
