
<svg id="z12476" class="jozu" version="1.1" viewBox="0 0 1024 1024" xmlns="http://www.w3.org/2000/svg" xmlns:xlink="http://www.w3.org/1999/xlink">

<path id="z12476d1" d="M125 580C73 596 120 626 139 634C165 645 188 651 209 638C296 585 629 461 703 442C723 437 754 423 773 429C784 432 790 447 783 457C771 474 748 501 736 517C709 552 679 586 652 620C628 650 633 664 685 624C737 583 792 513 874 470C888 463 925 448 909 429C882 396 861 350 820 339C803 335 787 345 773 353C640 424 446 480 125 580Z"></path>
<path id="z12476d2" d="M399 275C398 341 392 717 418 793C426 817 443 837 466 850C522 884 577 881 633 881C692 880 751 873 808 858C818 856 831 852 834 841C837 827 826 815 817 806C803 794 788 784 769 783C743 782 713 797 690 804C634 821 582 823 544 818C523 815 500 802 489 783C474 757 472 727 471 698C467 647 464 365 479 296C483 279 488 268 499 248C511 224 465 192 401 186C370 184 358 211 380 231C394 245 399 263 399 275Z"></path>
<path id="z12476d3" d="M769 140C760 141 757 156 765 160C779 171 794 180 806 193C827 215 841 243 859 267C866 275 881 279 889 270C900 258 897 241 895 227C892 205 880 183 860 172C837 158 811 150 785 142C780 141 775 141 769 140Z"></path>
<path id="z12476d4" d="M837 72C828 71 825 87 833 91C848 102 865 111 876 126C897 148 911 175 928 200C936 209 952 210 959 199C970 185 965 166 962 150C957 131 946 112 927 103C903 88 875 79 848 72C844 72 841 71 837 72Z"></path>
<defs>
	<clipPath id="z12476c1"><use xlink:href="#z12476d1"></use></clipPath>
	<clipPath id="z12476c2"><use xlink:href="#z12476d2"></use></clipPath>
	<clipPath id="z12476c3"><use xlink:href="#z12476d3"></use></clipPath>
	<clipPath id="z12476c4"><use xlink:href="#z12476d4"></use></clipPath>
</defs>
<path style="--d:1s;" pathLength="3333" clip-path="url(#z12476c1)" d="M 114,600 191,601 784,379 839,440 628,637"></path>
<path style="--d:2s;" pathLength="3333" clip-path="url(#z12476c2)" d="M 384,202 436,240 428,708 481,836 802,834"></path>
<path style="--d:3s;" pathLength="3333" clip-path="url(#z12476c3)" d="M 764,154 853,198 869,262"></path>
<path style="--d:4s;" pathLength="3333" clip-path="url(#z12476c4)" d="M 833,84 917,130 939,192"></path>
<g visibility="var(--visibilty)"><circle cx="133.99831358825958" cy="600.2597183582891" r="40" stroke="#000" fill="#fff" stroke-width="5"></circle><text x="133.99831358825958" y="620.2597183582891" text-anchor="middle" font-family="arial" font-weight="normal" fill="#000" font-size="60">1</text><circle cx="400.14782244515794" cy="213.8003317868462" r="40" stroke="#000" fill="#fff" stroke-width="5"></circle><text x="400.14782244515794" y="233.8003317868462" text-anchor="middle" font-family="arial" font-weight="normal" fill="#000" font-size="60">2</text><circle cx="781.9286514428327" cy="162.86360296050157" r="40" stroke="#000" fill="#fff" stroke-width="5"></circle><text x="781.9286514428327" y="182.86360296050157" text-anchor="middle" font-family="arial" font-weight="normal" fill="#000" font-size="60">3</text><circle cx="850.54192535683" cy="93.60629245731168" r="40" stroke="#000" fill="#fff" stroke-width="5"></circle><text x="850.54192535683" y="113.60629245731168" text-anchor="middle" font-family="arial" font-weight="normal" fill="#000" font-size="60">4</text></g></svg>
