
<svg id="z12485" class="jozu" version="1.1" viewBox="0 0 1024 1024" xmlns="http://www.w3.org/2000/svg" xmlns:xlink="http://www.w3.org/1999/xlink">

<path id="z12485d1" d="M129 292C165 343 182 394 212 448C219 460 233 470 247 465C272 455 279 426 276 402C271 369 240 327 163 275C134 255 115 271 129 292Z"></path>
<path id="z12485d2" d="M380 226C419 274 442 325 468 383C480 409 533 388 530 336C529 303 513 272 419 206C376 175 353 193 380 226Z"></path>
<path id="z12485d3" d="M763 196C699 195 734 250 722 297C701 379 575 618 375 802C290 880 302 906 390 841C590 694 712 529 814 363C827 340 835 322 858 310C905 288 805 196 763 196Z"></path>
<path id="z12485d4" d="M811 100C802 101 799 116 807 120C821 131 836 140 848 153C869 175 883 203 901 227C908 235 923 239 931 230C942 218 939 201 937 187C934 165 922 143 902 132C879 118 853 110 827 102C822 101 817 101 811 100Z"></path>
<path id="z12485d5" d="M879 32C870 31 867 47 875 51C890 62 907 71 918 86C939 108 953 135 970 160C978 169 994 170 1001 159C1012 145 1007 126 1004 110C999 91 988 72 969 63C945 48 917 39 890 32C886 32 883 31 879 32Z"></path>
<defs>
	<clipPath id="z12485c1"><use xlink:href="#z12485d1"></use></clipPath>
	<clipPath id="z12485c2"><use xlink:href="#z12485d2"></use></clipPath>
	<clipPath id="z12485c3"><use xlink:href="#z12485d3"></use></clipPath>
	<clipPath id="z12485c4"><use xlink:href="#z12485d4"></use></clipPath>
	<clipPath id="z12485c5"><use xlink:href="#z12485d5"></use></clipPath>
</defs>
<path style="--d:1s;" pathLength="3333" clip-path="url(#z12485c1)" d="M 141,281 248,456.2"></path>
<path style="--d:2s;" pathLength="3333" clip-path="url(#z12485c2)" d="M 381,197 475,313 492,384"></path>
<path style="--d:3s;" pathLength="3333" clip-path="url(#z12485c3)" d="M 748,206 802,280 605,625 331,865.8"></path>
<path style="--d:4s;" pathLength="3333" clip-path="url(#z12485c4)" d="M 806,114 895,158 911,222"></path>
<path style="--d:5s;" pathLength="3333" clip-path="url(#z12485c5)" d="M 875,44 959,90 981,152"></path>
<g visibility="var(--visibilty)"><circle cx="151.43294389860338" cy="298.0632260023887" r="40" stroke="#000" fill="#fff" stroke-width="5"></circle><text x="151.43294389860338" y="318.0632260023887" text-anchor="middle" font-family="arial" font-weight="normal" fill="#000" font-size="60">1</text><circle cx="393.59166996554006" cy="212.53865655321965" r="40" stroke="#000" fill="#fff" stroke-width="5"></circle><text x="393.59166996554006" y="232.53865655321965" text-anchor="middle" font-family="arial" font-weight="normal" fill="#000" font-size="60">2</text><circle cx="759.7893814011885" cy="222.15581895718418" r="40" stroke="#000" fill="#fff" stroke-width="5"></circle><text x="759.7893814011885" y="242.15581895718418" text-anchor="middle" font-family="arial" font-weight="normal" fill="#000" font-size="60">3</text><circle cx="823.9286514428327" cy="122.86360296050157" r="40" stroke="#000" fill="#fff" stroke-width="5"></circle><text x="823.9286514428327" y="142.86360296050157" text-anchor="middle" font-family="arial" font-weight="normal" fill="#000" font-size="60">4</text><circle cx="892.54192535683" cy="53.60629245731169" r="40" stroke="#000" fill="#fff" stroke-width="5"></circle><text x="892.54192535683" y="73.6062924573117" text-anchor="middle" font-family="arial" font-weight="normal" fill="#000" font-size="60">5</text></g></svg>
