
<svg id="z12489" class="jozu" version="1.1" viewBox="0 0 1024 1024" xmlns="http://www.w3.org/2000/svg" xmlns:xlink="http://www.w3.org/1999/xlink">

<path id="z12489d1" d="M420 104C397 104 399 125 404 132C422 159 436 202 439 262C447 512 425 759 416 791C408 815 414 854 434 899C439 911 445 936 471 913C488 897 496 878 496 835C495 805 495 657 496 397C496 397 496 397 496 397C496 397 496 374 496 362C496 362 496 362 496 362C496 362 498 227 515 186C527 156 494 133 451 113C437 107 427 104 420 104Z"></path>
<path id="z12489d2" d="M496 397C563 429 699 475 780 524C796 534 809 541 821 541C827 540 833 536 837 528C843 516 837 496 820 469C795 430 648 388 496 362C484 360 485 393 496 397Z"></path>
<path id="z12489d3" d="M749 140C740 141 737 156 745 160C759 171 774 180 786 193C807 215 821 243 839 267C846 275 861 279 869 270C880 258 877 241 875 227C872 205 860 183 840 172C817 158 791 150 765 142C760 141 755 141 749 140Z"></path>
<path id="z12489d4" d="M817 72C808 71 805 87 813 91C828 102 845 111 856 126C877 148 891 175 908 200C916 209 932 210 939 199C950 185 945 166 942 150C937 131 926 112 907 103C883 88 855 79 828 72C824 72 821 71 817 72Z"></path>
<defs>
	<clipPath id="z12489c1"><use xlink:href="#z12489d1"></use></clipPath>
	<clipPath id="z12489c2"><use xlink:href="#z12489d2"></use></clipPath>
	<clipPath id="z12489c3"><use xlink:href="#z12489d3"></use></clipPath>
	<clipPath id="z12489c4"><use xlink:href="#z12489d4"></use></clipPath>
</defs>
<path style="--d:1s;" pathLength="3333" clip-path="url(#z12489c1)" d="M 406,113 475,175 455,919"></path>
<path style="--d:2s;" pathLength="3333" clip-path="url(#z12489c2)" d="M 507,375 745,460 829,534"></path>
<path style="--d:3s;" pathLength="3333" clip-path="url(#z12489c3)" d="M 744,154 833,198 849,262"></path>
<path style="--d:4s;" pathLength="3333" clip-path="url(#z12489c4)" d="M 813,84 897,130 919,192"></path>
<g visibility="var(--visibility)"><circle cx="420.87659873781" cy="126.3673785760032" r="40" stroke="#000" fill="#fff" stroke-width="5"></circle><text x="420.87659873781" y="146.3673785760032" text-anchor="middle" font-family="arial" font-weight="normal" fill="#000" font-size="60">1</text><circle cx="525.8348382318967" cy="381.7267279399631" r="40" stroke="#000" fill="#fff" stroke-width="5"></circle><text x="525.8348382318967" y="401.7267279399631" text-anchor="middle" font-family="arial" font-weight="normal" fill="#000" font-size="60">2</text><circle cx="761.9286514428327" cy="162.86360296050157" r="40" stroke="#000" fill="#fff" stroke-width="5"></circle><text x="761.9286514428327" y="182.86360296050157" text-anchor="middle" font-family="arial" font-weight="normal" fill="#000" font-size="60">3</text><circle cx="830.54192535683" cy="93.60629245731168" r="40" stroke="#000" fill="#fff" stroke-width="5"></circle><text x="830.54192535683" y="113.60629245731168" text-anchor="middle" font-family="arial" font-weight="normal" fill="#000" font-size="60">4</text></g></svg>
