
<svg id="z12496" class="jozu" version="1.1" viewBox="0 0 1024 1024" xmlns="http://www.w3.org/2000/svg" xmlns:xlink="http://www.w3.org/1999/xlink">

<path id="z12496d1" d="M328 340C318 354 322 383 302 425C258 516 204 587 131 653C77 703 113 705 150 679C292 581 355 487 415 445C463 410 420 379 409 367C386 345 353 307 328 340Z"></path>
<path id="z12496d2" d="M613 373C689 449 749 527 794 625C808 663 846 704 889 678C929 643 886 578 859 541C789 451 715 397 620 334C573 302 562 322 613 373Z"></path>
<path id="z12496d3" d="M739 220C730 221 727 236 735 240C749 251 764 260 776 273C797 295 811 323 829 347C836 355 851 359 859 350C870 338 867 321 865 307C862 285 850 263 830 252C807 238 781 230 755 222C750 221 745 221 739 220Z"></path>
<path id="z12496d4" d="M807 152C798 151 795 167 803 171C818 182 835 191 846 206C867 228 881 255 898 280C906 289 922 290 929 279C940 265 935 246 932 230C927 211 916 192 897 183C873 168 846 160 819 153C815 152 811 152 807 152Z"></path>
<defs>
	<clipPath id="z12496c1"><use xlink:href="#z12496d1"></use></clipPath>
	<clipPath id="z12496c2"><use xlink:href="#z12496d2"></use></clipPath>
	<clipPath id="z12496c3"><use xlink:href="#z12496d3"></use></clipPath>
	<clipPath id="z12496c4"><use xlink:href="#z12496d4"></use></clipPath>
</defs>
<path style="--d:1s;" pathLength="3333" clip-path="url(#z12496c1)" d="M 348,340 372,421 253,581 128,678.9"></path>
<path style="--d:2s;" pathLength="3333" clip-path="url(#z12496c2)" d="M 591,326 835,548 875,674.5"></path>
<path style="--d:3s;" pathLength="3333" clip-path="url(#z12496c3)" d="M 744,234 833,278 849,342"></path>
<path style="--d:4s;" pathLength="3333" clip-path="url(#z12496c4)" d="M 813,164 897,210 919,272"></path>
<g visibility="var(--visibilty)"><circle cx="353.6817665938275" cy="359.17596225416776" r="40" stroke="#000" fill="#fff" stroke-width="5"></circle><text x="353.6817665938275" y="379.17596225416776" text-anchor="middle" font-family="arial" font-weight="normal" fill="#000" font-size="60">1</text><circle cx="605.7933135101453" cy="339.4594901608699" r="40" stroke="#000" fill="#fff" stroke-width="5"></circle><text x="605.7933135101453" y="359.4594901608699" text-anchor="middle" font-family="arial" font-weight="normal" fill="#000" font-size="60">2</text><circle cx="761.9286514428327" cy="242.86360296050157" r="40" stroke="#000" fill="#fff" stroke-width="5"></circle><text x="761.9286514428327" y="262.86360296050157" text-anchor="middle" font-family="arial" font-weight="normal" fill="#000" font-size="60">3</text><circle cx="830.54192535683" cy="173.6062924573117" r="40" stroke="#000" fill="#fff" stroke-width="5"></circle><text x="830.54192535683" y="193.6062924573117" text-anchor="middle" font-family="arial" font-weight="normal" fill="#000" font-size="60">4</text></g></svg>
