
<svg id="z12502" class="jozu" version="1.1" viewBox="0 0 1024 1024" xmlns="http://www.w3.org/2000/svg" xmlns:xlink="http://www.w3.org/1999/xlink">

<path id="z12502d1" d="M730 178C686 178 647 205 606 216C532 233 478 246 404 259C326 272 247 285 168 295C161 295 153 300 156 308C160 320 171 328 182 335C199 346 219 353 241 351C273 347 304 331 335 322C375 310 415 302 456 294C530 279 583 265 658 253C668 251 682 248 691 256C701 263 695 276 693 286C659 406 552 543 474 625C421 679 362 729 305 778C282 796 260 813 242 835C237 839 231 846 236 851C240 856 249 852 254 851C288 839 317 818 347 798C418 750 486 697 548 638C593 594 632 545 669 495C715 432 737 365 780 300C786 289 797 281 808 275C820 266 831 250 826 235C821 222 809 214 799 207C780 192 759 178 734 178C731 178 731 178 730 178Z"></path>
<path id="z12502d2" d="M809 100C800 101 797 116 805 120C819 131 834 140 846 153C867 175 881 203 899 227C906 235 921 239 929 230C940 218 937 201 935 187C932 165 920 143 900 132C877 118 851 110 825 102C820 101 815 101 809 100Z"></path>
<path id="z12502d3" d="M877 32C868 31 865 47 873 51C888 62 905 71 916 86C937 108 951 135 968 160C976 169 992 170 999 159C1010 145 1005 126 1002 110C997 91 986 72 967 63C943 48 915 39 888 32C884 32 881 31 877 32Z"></path>
<defs>
	<clipPath id="z12502c1"><use xlink:href="#z12502d1"></use></clipPath>
	<clipPath id="z12502c2"><use xlink:href="#z12502d2"></use></clipPath>
	<clipPath id="z12502c3"><use xlink:href="#z12502d3"></use></clipPath>
</defs>
<path style="--d:1s;" pathLength="3333" clip-path="url(#z12502c1)" d="M 166,304 258,303 723,209 785,253 554,584 251,841"></path>
<path style="--d:2s;" pathLength="3333" clip-path="url(#z12502c2)" d="M 804,114 893,158 909,222"></path>
<path style="--d:3s;" pathLength="3333" clip-path="url(#z12502c3)" d="M 873,44 957,90 979,152"></path>
<g visibility="var(--visibilty)"><circle cx="185.99881863020067" cy="303.78262153662826" r="40" stroke="#000" fill="#fff" stroke-width="5"></circle><text x="185.99881863020067" y="323.78262153662826" text-anchor="middle" font-family="arial" font-weight="normal" fill="#000" font-size="60">1</text><circle cx="821.9286514428327" cy="122.86360296050157" r="40" stroke="#000" fill="#fff" stroke-width="5"></circle><text x="821.9286514428327" y="142.86360296050157" text-anchor="middle" font-family="arial" font-weight="normal" fill="#000" font-size="60">2</text><circle cx="890.54192535683" cy="53.60629245731169" r="40" stroke="#000" fill="#fff" stroke-width="5"></circle><text x="890.54192535683" y="73.6062924573117" text-anchor="middle" font-family="arial" font-weight="normal" fill="#000" font-size="60">3</text></g></svg>
