
<svg id="z12505" class="jozu" version="1.1" viewBox="0 0 1024 1024" xmlns="http://www.w3.org/2000/svg" xmlns:xlink="http://www.w3.org/1999/xlink">

<path id="z12505d1" d="M371 290C330 290 293 313 259 333C210 362 173 399 124 427C112 434 70 412 64 439C59 459 81 475 94 488C104 498 116 508 130 510C143 512 156 503 164 493C174 479 185 466 197 453C242 411 290 372 345 344C357 339 371 333 384 338C397 343 407 354 418 364C492 427 563 494 643 550C731 611 821 667 909 728C919 735 939 734 946 721C955 706 951 686 944 670C932 643 906 626 881 612C809 574 733 543 666 496C586 440 514 374 436 315C417 301 395 289 371 290Z"></path>
<path id="z12505d2" d="M739 220C730 221 727 236 735 240C749 251 764 260 776 273C797 295 811 323 829 347C836 355 851 359 859 350C870 338 867 321 865 307C862 285 850 263 830 252C807 238 781 230 755 222C750 221 745 221 739 220Z"></path>
<path id="z12505d3" d="M807 152C798 151 795 167 803 171C818 182 835 191 846 206C867 228 881 255 898 280C906 289 922 290 929 279C940 265 935 246 932 230C927 211 916 192 897 183C873 168 846 160 819 153C815 152 811 152 807 152Z"></path>
<defs>
	<clipPath id="z12505c1"><use xlink:href="#z12505d1"></use></clipPath>
	<clipPath id="z12505c2"><use xlink:href="#z12505d2"></use></clipPath>
	<clipPath id="z12505c3"><use xlink:href="#z12505d3"></use></clipPath>
</defs>
<path style="--d:1s;" pathLength="3333" clip-path="url(#z12505c1)" d="M 75,438 138,469 375,309 940,710"></path>
<path style="--d:2s;" pathLength="3333" clip-path="url(#z12505c2)" d="M 744,234 833,278 849,342"></path>
<path style="--d:3s;" pathLength="3333" clip-path="url(#z12505c3)" d="M 813,164 897,210 919,272"></path>
<g visibility="var(--visibility)"><circle cx="92.94514969472039" cy="446.8301530243862" r="40" stroke="#000" fill="#fff" stroke-width="5"></circle><text x="92.94514969472039" y="466.8301530243862" text-anchor="middle" font-family="arial" font-weight="normal" fill="#000" font-size="60">1</text><circle cx="761.9286514428327" cy="242.86360296050157" r="40" stroke="#000" fill="#fff" stroke-width="5"></circle><text x="761.9286514428327" y="262.86360296050157" text-anchor="middle" font-family="arial" font-weight="normal" fill="#000" font-size="60">2</text><circle cx="830.54192535683" cy="173.6062924573117" r="40" stroke="#000" fill="#fff" stroke-width="5"></circle><text x="830.54192535683" y="193.6062924573117" text-anchor="middle" font-family="arial" font-weight="normal" fill="#000" font-size="60">3</text></g></svg>

