
<svg id="z12508" class="jozu" version="1.1" viewBox="0 0 1024 1024" xmlns="http://www.w3.org/2000/svg" xmlns:xlink="http://www.w3.org/1999/xlink">

<path id="z12508d1" d="M600 362C512 377 240 402 151 412C90 420 137 442 147 448C189 469 210 469 246 461C442 418 703 389 831 389C918 389 908 369 875 341C849 318 819 318 786 326C740 336 720 342 600 362Z"></path>
<path id="z12508d2" d="M466 141C507 205 505 677 482 795C474 833 407 803 379 793C344 781 395 842 401 852C431 893 450 922 479 926C521 932 544 872 550 829C571 689 558 292 558 265C558 228 570 196 574 172C579 138 547 129 508 115C460 99 455 124 466 141Z"></path>
<path id="z12508d3" d="M290 570C247 622 196 667 166 727C145 770 170 804 205 787C258 762 274 675 314 576C323 556 319 534 290 570Z"></path>
<path id="z12508d4" d="M704 574C756 657 770 706 824 771C849 801 892 769 877 721C857 654 791 601 719 548C678 518 673 524 704 574Z"></path>
<path id="z12508d5" d="M749 140C740 141 737 156 745 160C759 171 774 180 786 193C807 215 821 243 839 267C846 275 861 279 869 270C880 258 877 241 875 227C872 205 860 183 840 172C817 158 791 150 765 142C760 141 755 141 749 140Z"></path>
<path id="z12508d6" d="M817 72C808 71 805 87 813 91C828 102 845 111 856 126C877 148 891 175 908 200C916 209 932 210 939 199C950 185 945 166 942 150C937 131 926 112 907 103C883 88 855 79 828 72C824 72 821 71 817 72Z"></path>
<defs>
	<clipPath id="z12508c1"><use xlink:href="#z12508d1"></use></clipPath>
	<clipPath id="z12508c2"><use xlink:href="#z12508d2"></use></clipPath>
	<clipPath id="z12508c3"><use xlink:href="#z12508d3"></use></clipPath>
	<clipPath id="z12508c4"><use xlink:href="#z12508d4"></use></clipPath>
	<clipPath id="z12508c5"><use xlink:href="#z12508d5"></use></clipPath>
	<clipPath id="z12508c6"><use xlink:href="#z12508d6"></use></clipPath>
</defs>
<path style="--d:1s;" pathLength="3333" clip-path="url(#z12508c1)" d="M 134,428 613,379 890,370"></path>
<path style="--d:2s;" pathLength="3333" clip-path="url(#z12508c2)" d="M 472,123 537,180 528,822 487,869 376,801"></path>
<path style="--d:3s;" pathLength="3333" clip-path="url(#z12508c3)" d="M 308,566 178,782"></path>
<path style="--d:4s;" pathLength="3333" clip-path="url(#z12508c4)" d="M 693,541 861,767"></path>
<path style="--d:5s;" pathLength="3333" clip-path="url(#z12508c5)" d="M 744,154 833,198 849,262"></path>
<path style="--d:6s;" pathLength="3333" clip-path="url(#z12508c6)" d="M 813,84 897,130 919,192"></path>

<g visibility="var(--visibilty)"><circle cx="153.89616856729842" cy="425.9646925682722" r="40" stroke="#000" fill="#fff" stroke-width="5"></circle><text x="153.89616856729842" y="445.9646925682722" text-anchor="middle" font-family="arial" font-weight="normal" fill="#000" font-size="60">1</text><circle cx="487.03719409714546" cy="136.1864625159583" r="40" stroke="#000" fill="#fff" stroke-width="5"></circle><text x="487.03719409714546" y="156.1864625159583" text-anchor="middle" font-family="arial" font-weight="normal" fill="#000" font-size="60">2</text><circle cx="297.6867612959272" cy="583.135842769844" r="40" stroke="#000" fill="#fff" stroke-width="5"></circle><text x="297.6867612959272" y="603.135842769844" text-anchor="middle" font-family="arial" font-weight="normal" fill="#000" font-size="60">3</text><circle cx="704.9317098470377" cy="557.0509906275627" r="40" stroke="#000" fill="#fff" stroke-width="5"></circle><text x="704.9317098470377" y="577.0509906275627" text-anchor="middle" font-family="arial" font-weight="normal" fill="#000" font-size="60">4</text><circle cx="761.9286514428327" cy="162.86360296050157" r="40" stroke="#000" fill="#fff" stroke-width="5"></circle><text x="761.9286514428327" y="182.86360296050157" text-anchor="middle" font-family="arial" font-weight="normal" fill="#000" font-size="60">5</text><circle cx="830.54192535683" cy="93.60629245731168" r="40" stroke="#000" fill="#fff" stroke-width="5"></circle><text x="830.54192535683" y="113.60629245731168" text-anchor="middle" font-family="arial" font-weight="normal" fill="#000" font-size="60">6</text></g></svg>
