
<svg id="z12535" class="jozu" version="1.1" viewBox="0 0 1024 1024" xmlns="http://www.w3.org/2000/svg" xmlns:xlink="http://www.w3.org/1999/xlink">

<path id="z12535d1" d="M184 239C178 239 168 242 169 251C169 271 178 289 183 308C191 346 196 386 200 424C203 456 209 491 230 515C237 523 247 532 258 536C265 538 271 532 272 523C275 492 272 460 266 430C257 383 249 364 242 317C239 302 243 283 234 271C223 255 203 239 184 239Z"></path>
<path id="z12535d2" d="M725 158C701 163 679 174 657 182C576 210 358 263 234 271C218 271 226 317 242 317C338 314 392 297 442 286C547 260 685 235 712 246C724 251 732 259 735 272C739 291 731 312 726 330C706 388 689 436 663 489C605 603 567 683 374 892C348 918 349 938 384 915C554 803 655 642 679 600C719 528 744 458 780 384C792 358 806 331 826 310C834 301 845 290 846 277C846 257 832 239 822 227C800 199 774 176 745 162C738 159 731 156 725 158Z"></path>
<path id="z12535d3" d="M809 100C800 101 797 116 805 120C819 131 834 140 846 153C867 175 881 203 899 227C906 235 921 239 929 230C940 218 937 201 935 187C932 165 920 143 900 132C877 118 851 110 825 102C820 101 815 101 809 100Z"></path>
<path id="z12535d4" d="M877 32C868 31 865 47 873 51C888 62 905 71 916 86C937 108 951 135 968 160C976 169 992 170 999 159C1010 145 1005 126 1002 110C997 91 986 72 967 63C943 48 915 39 888 32C884 32 881 31 877 32Z"></path>
<defs>
	<clipPath id="z12535c1"><use xlink:href="#z12535d1"></use></clipPath>
	<clipPath id="z12535c2"><use xlink:href="#z12535d2"></use></clipPath>
	<clipPath id="z12535c3"><use xlink:href="#z12535d3"></use></clipPath>
	<clipPath id="z12535c4"><use xlink:href="#z12535d4"></use></clipPath>
</defs>
<path style="--d:1s;" pathLength="3333" clip-path="url(#z12535c1)" d="M 182,250 258,524"></path>
<path style="--d:2s;" pathLength="3333" clip-path="url(#z12535c2)" d="M 243,277 326,280 746,188 808,261 579,713 373,914"></path>
<path style="--d:3s;" pathLength="3333" clip-path="url(#z12535c3)" d="M 804,114 893,158 909,222"></path>
<path style="--d:4s;" pathLength="3333" clip-path="url(#z12535c4)" d="M 873,44 957,90 979,152"></path>
<g visibility="var(--visibility)"><circle cx="187.34562149088683" cy="269.27237221714466" r="40" stroke="#000" fill="#fff" stroke-width="5"></circle><text x="187.34562149088683" y="289.27237221714466" text-anchor="middle" font-family="arial" font-weight="normal" fill="#000" font-size="60">1</text><circle cx="262.98694848137114" cy="277.7224198246279" r="40" stroke="#000" fill="#fff" stroke-width="5"></circle><text x="262.98694848137114" y="297.7224198246279" text-anchor="middle" font-family="arial" font-weight="normal" fill="#000" font-size="60">2</text><circle cx="821.9286514428327" cy="122.86360296050157" r="40" stroke="#000" fill="#fff" stroke-width="5"></circle><text x="821.9286514428327" y="142.86360296050157" text-anchor="middle" font-family="arial" font-weight="normal" fill="#000" font-size="60">3</text><circle cx="890.54192535683" cy="53.60629245731169" r="40" stroke="#000" fill="#fff" stroke-width="5"></circle><text x="890.54192535683" y="73.6062924573117" text-anchor="middle" font-family="arial" font-weight="normal" fill="#000" font-size="60">4</text></g></svg>

