
<svg id="z12536" class="jozu" version="1.1" viewBox="0 0 1024 1024" xmlns="http://www.w3.org/2000/svg" xmlns:xlink="http://www.w3.org/1999/xlink">

<path id="z12536d1" d="M475 326C432 332 317 339 275 341C237 342 262 361 269 368C278 377 293 388 314 392C319 393 331 393 347 391C387 386 387 386 407 383C464 375 545 362 616 354C683 346 761 349 782 328C805 305 769 272 743 279C666 296 615 305 475 326Z"></path>
<path id="z12536d2" d="M347 391C351 400 353 416 354 433C355 461 352 507 347 566C347 585 403 580 403 561C403 526 403 460 411 420C415 396 414 391 407 383C395 367 340 372 347 391Z"></path>
<path id="z12536d3" d="M243 575C210 578 178 580 147 583C127 584 138 599 143 603C171 626 225 642 269 631C353 609 636 585 708 580C793 573 853 582 885 573C907 566 863 529 844 524C784 507 737 526 650 537C582 544 485 553 403 561C366 564 366 564 347 566C289 571 249 574 243 575Z"></path>
<path id="z12536d4" d="M508 90C484 90 506 123 512 139C522 169 529 192 532 221C534 251 529 618 529 661C527 718 519 771 516 826C513 866 552 936 566 925C614 887 592 809 592 716C592 654 585 222 608 155C621 115 551 90 508 90Z"></path>
<path id="z12536d5" d="M789 140C780 141 777 156 785 160C799 171 814 180 826 193C847 215 861 243 879 267C886 275 901 279 909 270C920 258 917 241 915 227C912 205 900 183 880 172C857 158 831 150 805 142C800 141 795 141 789 140Z"></path>
<path id="z12536d6" d="M857 72C848 71 845 87 853 91C868 102 885 111 896 126C917 148 931 175 948 200C956 209 972 210 979 199C990 185 985 166 982 150C977 131 966 112 947 103C923 88 895 79 868 72C864 72 861 71 857 72Z"></path>
<defs>
	<clipPath id="z12536c1"><use xlink:href="#z12536d1"></use></clipPath>
	<clipPath id="z12536c2"><use xlink:href="#z12536d2"></use></clipPath>
	<clipPath id="z12536c3"><use xlink:href="#z12536d3"></use></clipPath>
	<clipPath id="z12536c4"><use xlink:href="#z12536d4"></use></clipPath>
	<clipPath id="z12536c5"><use xlink:href="#z12536d5"></use></clipPath>
	<clipPath id="z12536c6"><use xlink:href="#z12536d6"></use></clipPath>
</defs>
<path style="--d:1s;" pathLength="3333" clip-path="url(#z12536c1)" d="M 289,363 773,313"></path>
<path style="--d:2s;" pathLength="3333" clip-path="url(#z12536c2)" d="M 356,397 385,407 362,555"></path>
<path style="--d:3s;" pathLength="3333" clip-path="url(#z12536c3)" d="M 152,592 881,558"></path>
<path style="--d:4s;" pathLength="3333" clip-path="url(#z12536c4)" d="M 506,101 563,145 566,911"></path>
<path style="--d:5s;" pathLength="3333" clip-path="url(#z12536c5)" d="M 784,154 873,198 889,262"></path>
<path style="--d:6s;" pathLength="3333" clip-path="url(#z12536c6)" d="M 853,84 937,130 959,192"></path>
<g visibility="var(--visibility)"><circle cx="308.89412582163806" cy="360.9448217126407" r="40" stroke="#000" fill="#fff" stroke-width="5"></circle><text x="308.89412582163806" y="380.9448217126407" text-anchor="middle" font-family="arial" font-weight="normal" fill="#000" font-size="60">1</text><circle cx="374.90745963252544" cy="403.5198136663881" r="40" stroke="#000" fill="#fff" stroke-width="5"></circle><text x="374.90745963252544" y="423.5198136663881" text-anchor="middle" font-family="arial" font-weight="normal" fill="#000" font-size="60">2</text><circle cx="171.97828324314253" cy="591.0682282163692" r="40" stroke="#000" fill="#fff" stroke-width="5"></circle><text x="171.97828324314253" y="611.0682282163692" text-anchor="middle" font-family="arial" font-weight="normal" fill="#000" font-size="60">3</text><circle cx="521.8318064194638" cy="113.22104355186679" r="40" stroke="#000" fill="#fff" stroke-width="5"></circle><text x="521.8318064194638" y="133.22104355186679" text-anchor="middle" font-family="arial" font-weight="normal" fill="#000" font-size="60">4</text><circle cx="801.9286514428327" cy="162.86360296050157" r="40" stroke="#000" fill="#fff" stroke-width="5"></circle><text x="801.9286514428327" y="182.86360296050157" text-anchor="middle" font-family="arial" font-weight="normal" fill="#000" font-size="60">5</text><circle cx="870.54192535683" cy="93.60629245731168" r="40" stroke="#000" fill="#fff" stroke-width="5"></circle><text x="870.54192535683" y="113.60629245731168" text-anchor="middle" font-family="arial" font-weight="normal" fill="#000" font-size="60">6</text></g></svg>
