
<svg id="z12537" class="jozu" version="1.1" viewBox="0 0 1024 1024" xmlns="http://www.w3.org/2000/svg" xmlns:xlink="http://www.w3.org/1999/xlink">

<path id="z12537d1" d="M666 213C563 232 470 249 323 271C206 288 260 312 276 322C301 337 332 337 351 332C449 310 532 271 633 263C653 262 690 290 674 312C643 355 608 393 570 429C527 469 544 493 597 451C658 403 723 363 787 321C807 308 783 276 773 259C753 226 737 200 666 213Z"></path>
<path id="z12537d2" d="M452 445C441 462 485 519 487 560C490 641 492 705 488 774C488 792 543 787 543 769C543 714 543 714 543 686C544 629 548 558 565 518C570 505 560 489 532 469C514 456 466 423 452 445Z"></path>
<path id="z12537d3" d="M136 792C125 791 94 788 110 811C136 845 175 871 216 859C345 839 475 818 607 824C706 823 806 833 906 841C924 838 904 808 897 800C867 760 820 746 775 750C747 749 651 759 543 769C506 772 506 772 488 774C347 786 196 799 136 792Z"></path>
<path id="z12537d4" d="M789 140C780 141 777 156 785 160C799 171 814 180 826 193C847 215 861 243 879 267C886 275 901 279 909 270C920 258 917 241 915 227C912 205 900 183 880 172C857 158 831 150 805 142C800 141 795 141 789 140Z"></path>
<path id="z12537d5" d="M857 72C848 71 845 87 853 91C868 102 885 111 896 126C917 148 931 175 948 200C956 209 972 210 979 199C990 185 985 166 982 150C977 131 966 112 947 103C923 88 895 79 868 72C864 72 861 71 857 72Z"></path>
<defs>
	<clipPath id="z12537c1"><use xlink:href="#z12537d1"></use></clipPath>
	<clipPath id="z12537c2"><use xlink:href="#z12537d2"></use></clipPath>
	<clipPath id="z12537c3"><use xlink:href="#z12537d3"></use></clipPath>
	<clipPath id="z12537c4"><use xlink:href="#z12537d4"></use></clipPath>
	<clipPath id="z12537c5"><use xlink:href="#z12537d5"></use></clipPath>
</defs>
<path style="--d:1s;" pathLength="3333" clip-path="url(#z12537c1)" d="M 262,296 342,305 690,233 742,305 555,467"></path>
<path style="--d:2s;" pathLength="3333" clip-path="url(#z12537c2)" d="M 464,452 525,510 499,764"></path>
<path style="--d:3s;" pathLength="3333" clip-path="url(#z12537c3)" d="M 123,803 207,830 814,781 900,827"></path>
<path style="--d:4s;" pathLength="3333" clip-path="url(#z12537c4)" d="M 784,154 873,198 889,262"></path>
<path style="--d:5s;" pathLength="3333" clip-path="url(#z12537c5)" d="M 853,84 937,130 959,192"></path>
<g visibility="var(--visibility)"><circle cx="281.874626323176" cy="298.2358954613573" r="40" stroke="#000" fill="#fff" stroke-width="5"></circle><text x="281.874626323176" y="318.2358954613573" text-anchor="middle" font-family="arial" font-weight="normal" fill="#000" font-size="60">1</text><circle cx="478.4940549465367" cy="465.7812325721169" r="40" stroke="#000" fill="#fff" stroke-width="5"></circle><text x="478.4940549465367" y="485.7812325721169" text-anchor="middle" font-family="arial" font-weight="normal" fill="#000" font-size="60">2</text><circle cx="142.0405712257053" cy="809.1201836082624" r="40" stroke="#000" fill="#fff" stroke-width="5"></circle><text x="142.0405712257053" y="829.1201836082624" text-anchor="middle" font-family="arial" font-weight="normal" fill="#000" font-size="60">3</text><circle cx="801.9286514428327" cy="162.86360296050157" r="40" stroke="#000" fill="#fff" stroke-width="5"></circle><text x="801.9286514428327" y="182.86360296050157" text-anchor="middle" font-family="arial" font-weight="normal" fill="#000" font-size="60">4</text><circle cx="870.54192535683" cy="93.60629245731168" r="40" stroke="#000" fill="#fff" stroke-width="5"></circle><text x="870.54192535683" y="113.60629245731168" text-anchor="middle" font-family="arial" font-weight="normal" fill="#000" font-size="60">5</text></g></svg>
