
<svg id="z12388" class="jozu" version="1.1" viewBox="0 0 1024 1024" xmlns="http://www.w3.org/2000/svg" xmlns:xlink="http://www.w3.org/1999/xlink">

<path id="z12388d1" d="M682 269C576 272 474 301 374 335C318 354 263 374 205 384C174 390 143 391 114 400C105 403 94 409 94 420C95 433 108 441 117 449C134 462 155 468 176 466C195 465 212 456 228 449C281 425 336 406 390 388C450 366 511 344 574 333C631 323 689 316 747 323C776 326 807 335 828 357C855 385 866 426 863 464C857 518 828 569 786 603C714 665 628 706 540 740C527 745 513 749 500 756C493 761 491 773 499 779C508 787 522 782 533 779C619 753 706 724 783 678C839 643 889 594 912 531C933 475 929 408 896 357C878 330 852 309 822 296C778 276 730 269 682 269Z"></path>
<defs>
	<clipPath id="z12388c1"><use xlink:href="#z12388d1"></use></clipPath>
</defs>
<path style="--d:1s;" pathLength="3333" clip-path="url(#z12388c1)" d="M 107,418 161,448 547,300 791,304 891,398 878,550 683,707 508,769"></path>
<g visibility="var(--visibilty)"><circle cx="124.48314552243076" cy="427.71285862357263" r="40" stroke="#000" fill="#fff" stroke-width="5"></circle><text x="124.48314552243076" y="447.71285862357263" text-anchor="middle" font-family="arial" font-weight="normal" fill="#000" font-size="60">1</text></g></svg>

