
<svg id="z12390" class="jozu" version="1.1" viewBox="0 0 1024 1024" xmlns="http://www.w3.org/2000/svg" xmlns:xlink="http://www.w3.org/1999/xlink">

<path id="z12390d1" d="M755 129C736 130 727 152 709 157C658 179 604 194 552 213C439 253 326 291 211 327C191 332 169 333 149 324C142 322 131 322 128 331C125 342 135 351 141 358C159 378 180 398 207 403C227 406 245 393 263 386C292 372 321 358 350 346C450 302 551 260 653 224C661 220 656 225 653 228C629 253 605 277 584 303C532 363 488 431 470 509C453 583 462 664 503 729C537 781 587 821 637 857C665 876 694 893 727 901C742 904 761 902 769 888C776 877 773 863 767 852C762 837 754 820 737 815C713 804 687 797 664 783C616 756 573 720 541 676C505 619 504 547 527 485C544 440 570 399 600 360C629 324 662 290 698 261C730 238 766 220 805 215C817 212 828 201 824 189C820 175 808 166 799 156C788 146 778 135 765 130C762 129 758 128 755 129Z"></path>
<defs>
	<clipPath id="z12390c1"><use xlink:href="#z12390d1"></use></clipPath>
</defs>
<path style="--d:1s;" pathLength="3333" clip-path="url(#z12390c1)" d="M 142,338 222,380 756,167 786,192 678,245 518,431 482,581 531,734 759,888"></path>
<g visibility="visible"><circle cx="159.70795805675886" cy="347.2966779797984" r="40" stroke="#000" fill="#fff" stroke-width="5"></circle><text x="159.70795805675886" y="367.2966779797984" text-anchor="middle" font-family="arial" font-weight="normal" fill="#000" font-size="60">1</text></g></svg>

