
<svg id="z12356" class="jozu" version="1.1" viewBox="0 0 1024 1024" xmlns="http://www.w3.org/2000/svg" xmlns:xlink="http://www.w3.org/1999/xlink">

<path id="z12356d1" d="M103 237C94 237 83 242 84 252C85 265 97 274 106 283C124 303 125 332 131 358C154 461 174 568 222 663C251 720 293 771 345 809C358 818 376 821 390 811C399 806 402 794 402 784C403 763 398 741 402 719C405 688 414 658 421 628C422 620 424 609 415 606C406 604 398 611 395 618C376 645 361 675 341 702C339 706 334 707 332 703C310 686 290 666 276 642C256 611 244 575 233 540C221 500 210 461 202 421C195 385 189 348 188 312C188 299 194 287 193 274C190 262 177 257 167 251C147 242 125 237 103 237Z"></path>
<path id="z12356d2" d="M671 260C663 259 654 270 661 277C689 309 721 338 744 375C787 439 813 515 820 591C824 615 834 638 849 657C858 665 872 668 883 661C895 654 899 639 901 626C905 599 900 572 895 545C878 472 837 406 787 350C757 319 724 289 688 265C683 262 677 259 671 260Z"></path>
<defs>
	<clipPath id="z12356c1"><use xlink:href="#z12356d1"></use></clipPath>
	<clipPath id="z12356c2"><use xlink:href="#z12356d2"></use></clipPath>
</defs>
<path style="--d:1s;" pathLength="3333" clip-path="url(#z12356c1)" d="M 95,249 149,282 222,589 272,704 369,788 372,702 406,628"></path>
<path style="--d:2s;" pathLength="3333" clip-path="url(#z12356c2)" d="M 678,273 754,342 836,472 867,639"></path>
<g visibility="visible"><circle cx="112.06563667303918" cy="259.4290001890795" r="40" stroke="#000" fill="#fff" stroke-width="5"></circle><text x="112.06563667303918" y="279.4290001890795" text-anchor="middle" font-family="arial" font-weight="normal" fill="#000" font-size="60">1</text><circle cx="692.8076144457082" cy="286.44375522044555" r="40" stroke="#000" fill="#fff" stroke-width="5"></circle><text x="692.8076144457082" y="306.44375522044555" text-anchor="middle" font-family="arial" font-weight="normal" fill="#000" font-size="60">2</text></g></svg>

