
<svg id="z12408" class="jozu" version="1.1" viewBox="0 0 1024 1024" xmlns="http://www.w3.org/2000/svg" xmlns:xlink="http://www.w3.org/1999/xlink">

<path id="z12408d1" d="M371 290C330 291 294 313 259 333C210 363 166 399 118 429C105 433 92 426 80 422C71 421 61 429 64 439C65 459 81 474 94 488C104 498 116 508 130 510C143 511 156 503 164 493C174 479 184 465 197 453C241 410 291 372 345 344C357 339 371 334 384 338C397 344 406 355 418 364C491 428 563 495 643 550C730 612 822 665 909 728C920 734 938 734 946 721C954 705 950 686 944 670C932 643 907 625 881 612C810 573 733 544 666 496C586 441 514 374 436 315C417 301 395 289 371 290Z"></path>
<defs>
	<clipPath id="z12408c1"><use xlink:href="#z12408d1"></use></clipPath>
</defs>
<path style="--d:1s;" pathLength="3333" clip-path="url(#z12408c1)" d="M 75,438 138,469 247,372 375,309 940,710"></path>
<g visibility="var(--visibilty)"><circle cx="92.94514969472039" cy="446.8301530243862" r="40" stroke="#000" fill="#fff" stroke-width="5"></circle><text x="92.94514969472039" y="466.8301530243862" text-anchor="middle" font-family="arial" font-weight="normal" fill="#000" font-size="60">1</text></g></svg>

