
<svg id="z12426" class="jozu" version="1.1" viewBox="0 0 1024 1024" xmlns="http://www.w3.org/2000/svg" xmlns:xlink="http://www.w3.org/1999/xlink">

<path id="z12426d1" d="M345 79C335 80 331 92 335 99C341 112 342 126 340 139C337 159 334 179 330 199C318 264 295 327 291 393C289 436 295 479 309 520C315 535 322 552 338 558C349 563 363 559 368 548C377 532 375 514 380 498C395 431 427 368 451 303C453 296 448 288 440 288C429 288 423 300 418 308C397 342 378 378 361 414C359 416 357 422 356 422C355 394 355 364 358 336C364 289 377 245 391 200C399 179 409 156 403 133C397 107 374 88 350 80C348 79 346 80 345 79Z"></path>
<path id="z12426d2" d="M604 181C593 181 579 183 574 194C571 204 580 214 589 218C611 230 623 256 627 280C639 342 637 407 632 469C624 555 605 640 576 722C552 785 517 845 477 899C471 905 466 916 473 923C482 930 494 924 500 917C526 893 548 864 569 836C647 727 690 595 699 462C702 409 702 356 694 303C689 265 676 226 646 200C634 189 620 181 604 181Z"></path>
<defs>
	<clipPath id="z12426c1"><use xlink:href="#z12426d1"></use></clipPath>
	<clipPath id="z12426c2"><use xlink:href="#z12426d2"></use></clipPath>
</defs>
<path style="--d:1s;" pathLength="3333" clip-path="url(#z12426c1)" d="M 344,93 368,143 326,483 350,531 441,302"></path>
<path style="--d:2s;" pathLength="3333" clip-path="url(#z12426c2)" d="M 583,199 656,236 652,613 556,836 487,911"></path>
<g visibility="var(--visibility)"><circle cx="352.6546213516954" cy="111.03046114936546" r="40" stroke="#000" fill="#fff" stroke-width="5"></circle><text x="352.6546213516954" y="131.03046114936546" text-anchor="middle" font-family="arial" font-weight="normal" fill="#000" font-size="60">1</text><circle cx="600.839401672016" cy="208.04188851869304" r="40" stroke="#000" fill="#fff" stroke-width="5"></circle><text x="600.839401672016" y="228.04188851869304" text-anchor="middle" font-family="arial" font-weight="normal" fill="#000" font-size="60">2</text></g></svg>

