
<svg id="z12370" class="jozu" version="1.1" viewBox="0 0 1024 1024" xmlns="http://www.w3.org/2000/svg" xmlns:xlink="http://www.w3.org/1999/xlink">

<path id="z12370d1" d="M195 145C184 145 181 160 187 167C200 187 194 211 192 233C184 284 171 334 164 386C151 468 143 552 147 636C148 694 150 753 170 808C177 829 189 849 208 861C223 869 245 863 249 846C252 831 245 815 246 800C246 766 254 734 261 702C266 680 273 660 279 640C282 632 280 622 271 619C261 616 253 624 250 632C245 642 242 652 236 660C225 679 217 700 206 718C200 696 201 673 199 650C195 555 209 460 227 367C238 317 255 269 268 220C270 200 256 183 243 170C230 158 214 146 195 145Z"></path>
<path id="z12370d2" d="M794 315C731 321 670 341 608 352C542 365 474 374 407 385C398 387 387 390 386 400C386 411 398 417 407 421C426 430 447 433 467 427C520 414 574 407 627 400C692 393 756 387 821 382C831 381 841 381 850 379C861 373 862 357 854 348C841 329 818 316 794 315Z"></path>
<path id="z12370d3" d="M628 106C618 106 605 112 605 123C607 133 618 138 624 146C640 162 640 186 642 208C644 251 643 296 644 340C644 462 645 585 622 705C607 776 578 845 534 904C530 911 531 924 541 926C554 927 563 916 571 907C621 849 665 783 684 708C702 635 704 559 707 484C710 387 706 290 710 192C712 182 721 173 717 162C712 147 698 138 686 128C670 115 649 105 628 106Z"></path>
<path id="z12370d4" d="M789 123C780 123 777 138 785 142C799 152 814 161 826 174C847 195 861 222 879 245C886 253 901 256 909 247C920 236 917 220 915 206C912 185 900 164 880 153C857 140 831 132 805 125C800 124 795 123 789 123Z"></path>
<path id="z12370d5" d="M857 54C848 54 845 69 853 72C868 83 884 92 896 106C916 127 931 153 948 178C956 186 972 187 979 177C990 163 985 145 982 130C977 111 966 93 947 84C923 70 895 62 868 55C864 54 861 54 857 54Z"></path>
<defs>
	<clipPath id="z12370c1"><use xlink:href="#z12370d1"></use></clipPath>
	<clipPath id="z12370c2"><use xlink:href="#z12370d2"></use></clipPath>
	<clipPath id="z12370c3"><use xlink:href="#z12370d3"></use></clipPath>
	<clipPath id="z12370c4"><use xlink:href="#z12370d4"></use></clipPath>
	<clipPath id="z12370c5"><use xlink:href="#z12370d5"></use></clipPath>
</defs>
<path style="--d:1s;" pathLength="3333" clip-path="url(#z12370c1)" d="M 195,157 234,202 157,716 199,842 217,847 266,637"></path>
<path style="--d:2s;" pathLength="3333" clip-path="url(#z12370c2)" d="M 397,399 766,347 845,357"></path>
<path style="--d:3s;" pathLength="3333" clip-path="url(#z12370c3)" d="M 617,120 687,152 673,621 639,790 543,918"></path>
<path style="--d:4s;" pathLength="3333" clip-path="url(#z12370c4)" d="M 794,134 883,178 899,242"></path>
<path style="--d:5s;" pathLength="3333" clip-path="url(#z12370c5)" d="M 863,64 947,110 969,172"></path>
<g visibility="visible"><circle cx="208.09861076835685" cy="172.11378165579634" r="40" stroke="#000" fill="#fff" stroke-width="5"></circle><text x="208.09861076835685" y="192.11378165579634" text-anchor="middle" font-family="arial" font-weight="normal" fill="#000" font-size="60">1</text><circle cx="416.80432125360863" cy="396.2091471404129" r="40" stroke="#000" fill="#fff" stroke-width="5"></circle><text x="416.80432125360863" y="416.2091471404129" text-anchor="middle" font-family="arial" font-weight="normal" fill="#000" font-size="60">2</text><circle cx="635.189489511716" cy="128.31519520535588" r="40" stroke="#000" fill="#fff" stroke-width="5"></circle><text x="635.189489511716" y="148.31519520535588" text-anchor="middle" font-family="arial" font-weight="normal" fill="#000" font-size="60">3</text><circle cx="811.9286514428327" cy="142.86360296050157" r="40" stroke="#000" fill="#fff" stroke-width="5"></circle><text x="811.9286514428327" y="162.86360296050157" text-anchor="middle" font-family="arial" font-weight="normal" fill="#000" font-size="60">4</text><circle cx="880.54192535683" cy="73.60629245731168" r="40" stroke="#000" fill="#fff" stroke-width="5"></circle><text x="880.54192535683" y="93.60629245731168" text-anchor="middle" font-family="arial" font-weight="normal" fill="#000" font-size="60">5</text></g></svg>

