
<svg id="z12376" class="jozu" version="1.1" viewBox="0 0 1024 1024" xmlns="http://www.w3.org/2000/svg" xmlns:xlink="http://www.w3.org/1999/xlink">

<path id="z12376d1" d="M281 104C271 104 266 116 271 125C279 141 292 155 293 174C295 223 291 271 288 319C282 444 274 568 274 692C274 740 280 790 301 834C321 875 365 901 409 913C478 932 552 924 618 900C676 878 730 848 781 813C793 804 806 797 816 786C823 780 826 767 818 761C809 755 798 761 790 766C772 777 752 787 732 796C660 829 585 863 504 871C471 874 435 871 404 857C374 844 353 816 343 785C330 745 330 702 331 660C331 612 343 372 373 237C377 218 385 199 379 180C373 163 362 149 348 137C330 120 307 104 281 104Z"></path>
<path id="z12376d2" d="M679 220C670 221 667 236 675 240C689 251 704 260 716 273C737 295 751 323 769 347C776 355 791 359 799 350C810 338 807 321 805 307C802 285 790 263 770 252C747 238 721 230 695 222C690 221 685 221 679 220Z"></path>
<path id="z12376d3" d="M747 152C738 151 735 167 743 171C758 182 775 191 786 206C807 228 821 255 838 280C846 289 862 290 869 279C880 265 875 246 872 230C867 211 856 192 837 183C813 168 786 160 759 153C755 152 751 152 747 152Z"></path>
<defs>
	<clipPath id="z12376c1"><use xlink:href="#z12376d1"></use></clipPath>
	<clipPath id="z12376c2"><use xlink:href="#z12376d2"></use></clipPath>
	<clipPath id="z12376c3"><use xlink:href="#z12376d3"></use></clipPath>
</defs>
<path style="--d:1s;" pathLength="3333" clip-path="url(#z12376c1)" d="M 287,128 346,192 299,732 328,833 411,894 568,894 674,855 812,770"></path>
<path style="--d:2s;" pathLength="3333" clip-path="url(#z12376c2)" d="M 684,234 773,278 789,342"></path>
<path style="--d:3s;" pathLength="3333" clip-path="url(#z12376c3)" d="M 753,164 837,210 859,272"></path>
<g visibility="var(--visibilty)"><circle cx="300.5560562947853" cy="142.70487462485184" r="40" stroke="#000" fill="#fff" stroke-width="5"></circle><text x="300.5560562947853" y="162.70487462485184" text-anchor="middle" font-family="arial" font-weight="normal" fill="#000" font-size="60">1</text><circle cx="701.9286514428327" cy="242.86360296050157" r="40" stroke="#000" fill="#fff" stroke-width="5"></circle><text x="701.9286514428327" y="262.86360296050157" text-anchor="middle" font-family="arial" font-weight="normal" fill="#000" font-size="60">2</text><circle cx="770.54192535683" cy="173.6062924573117" r="40" stroke="#000" fill="#fff" stroke-width="5"></circle><text x="770.54192535683" y="193.6062924573117" text-anchor="middle" font-family="arial" font-weight="normal" fill="#000" font-size="60">3</text></g></svg>

