
<svg id="z12380" class="jozu" version="1.1" viewBox="0 0 1024 1024" xmlns="http://www.w3.org/2000/svg" xmlns:xlink="http://www.w3.org/1999/xlink">

<path id="z12380d1" d="M845 376C815 378 787 396 757 398C578 423 403 467 232 525C192 537 151 548 110 560C101 564 89 567 85 577C84 586 91 594 97 600C113 614 138 619 159 613C176 609 190 598 206 590C261 564 320 548 378 531C483 503 591 480 699 464C746 457 793 452 840 454C870 455 900 461 930 462C947 463 957 439 948 426C930 403 904 388 877 380C867 377 856 375 845 376Z"></path>
<path id="z12380d2" d="M649 108C640 108 628 108 624 118C621 128 631 136 637 142C652 160 652 185 652 208C650 300 641 391 632 482C626 533 622 586 610 635C606 651 601 667 592 679C583 686 571 680 561 680C551 678 539 673 530 681C525 685 526 695 532 699C543 709 554 719 562 731C571 742 577 754 586 764C593 769 603 766 609 760C630 744 644 719 654 695C672 647 677 595 684 544C695 455 698 365 709 277C712 250 715 221 723 195C727 187 735 181 734 170C732 152 717 139 704 128C688 117 669 108 649 108Z"></path>
<path id="z12380d3" d="M310 185C298 186 290 204 300 213C320 237 323 270 323 301C324 417 326 532 325 648C326 700 329 754 347 803C361 837 384 869 417 885C461 909 511 916 559 921C626 926 694 924 762 917C776 915 793 914 803 902C813 892 808 877 800 868C788 857 773 848 758 844C739 838 719 840 701 846C663 858 624 860 586 860C552 859 519 857 486 849C455 843 423 828 406 800C394 779 393 755 390 731C384 674 387 617 386 560C386 467 386 374 389 282C392 268 401 255 395 240C388 218 368 204 348 192C336 187 323 185 310 185Z"></path>
<path id="z12380d4" d="M789 140C780 141 777 156 785 160C799 171 814 180 826 193C847 215 861 243 879 267C886 275 901 279 909 270C920 258 917 241 915 227C912 205 900 183 880 172C857 158 831 150 805 142C800 141 795 141 789 140Z"></path>
<path id="z12380d5" d="M857 72C848 71 845 87 853 91C868 102 885 111 896 126C917 148 931 175 948 200C956 209 972 210 979 199C990 185 985 166 982 150C977 131 966 112 947 103C923 88 895 79 868 72C864 72 861 71 857 72Z"></path>
<defs>
	<clipPath id="z12380c1"><use xlink:href="#z12380d1"></use></clipPath>
	<clipPath id="z12380c2"><use xlink:href="#z12380d2"></use></clipPath>
	<clipPath id="z12380c3"><use xlink:href="#z12380d3"></use></clipPath>
	<clipPath id="z12380c4"><use xlink:href="#z12380d4"></use></clipPath>
	<clipPath id="z12380c5"><use xlink:href="#z12380d5"></use></clipPath>
</defs>
<path style="--d:1s;" pathLength="3333" clip-path="url(#z12380c1)" d="M 98,575 146,578 409,491 824,412 935,441"></path>
<path style="--d:2s;" pathLength="3333" clip-path="url(#z12380c2)" d="M 637,121 696,174 635,665 607,722 545,686"></path>
<path style="--d:3s;" pathLength="3333" clip-path="url(#z12380c3)" d="M 313,199 368,260 369,785 434,860 792,879"></path>
<path style="--d:4s;" pathLength="3333" clip-path="url(#z12380c4)" d="M 794,154 883,198 899,262"></path>
<path style="--d:5s;" pathLength="3333" clip-path="url(#z12380c5)" d="M 863,84 947,130 969,192"></path>
<g visibility="var(--visibility)"><circle cx="117.96105156965777" cy="576.2475657231037" r="40" stroke="#000" fill="#fff" stroke-width="5"></circle><text x="117.96105156965777" y="596.2475657231037" text-anchor="middle" font-family="arial" font-weight="normal" fill="#000" font-size="60">1</text><circle cx="651.8784155608903" cy="134.36535635130826" r="40" stroke="#000" fill="#fff" stroke-width="5"></circle><text x="651.8784155608903" y="154.36535635130826" text-anchor="middle" font-family="arial" font-weight="normal" fill="#000" font-size="60">2</text><circle cx="326.3927424359438" cy="213.8537688835013" r="40" stroke="#000" fill="#fff" stroke-width="5"></circle><text x="326.3927424359438" y="233.8537688835013" text-anchor="middle" font-family="arial" font-weight="normal" fill="#000" font-size="60">3</text><circle cx="811.9286514428327" cy="162.86360296050157" r="40" stroke="#000" fill="#fff" stroke-width="5"></circle><text x="811.9286514428327" y="182.86360296050157" text-anchor="middle" font-family="arial" font-weight="normal" fill="#000" font-size="60">4</text><circle cx="880.54192535683" cy="93.60629245731168" r="40" stroke="#000" fill="#fff" stroke-width="5"></circle><text x="880.54192535683" y="113.60629245731168" text-anchor="middle" font-family="arial" font-weight="normal" fill="#000" font-size="60">5</text></g></svg>

