
<svg id="z12363" class="jozu" version="1.1" viewBox="0 0 1024 1024" xmlns="http://www.w3.org/2000/svg" xmlns:xlink="http://www.w3.org/1999/xlink">

<path id="z12363d1" d="M460 355C404 356 350 375 296 391C260 402 223 417 186 425C158 432 130 436 102 441C95 443 85 446 85 455C86 468 98 476 108 483C121 492 135 499 150 501C170 503 187 489 205 484C250 467 295 451 339 434C385 418 433 408 481 409C496 410 514 414 524 427C536 443 533 465 531 484C522 565 488 640 453 711C439 740 426 768 407 793C403 800 394 806 386 802C373 796 361 787 348 780C338 774 328 767 317 767C309 767 301 773 302 782C303 795 316 801 322 811C343 840 360 870 376 900C381 910 387 924 399 925C411 927 420 917 428 908C465 861 491 807 515 752C538 695 561 639 577 580C589 537 597 491 590 446C585 419 571 393 548 377C522 359 491 354 460 355Z"></path>
<path id="z12363d2" d="M350 111C343 110 335 117 337 125C340 137 351 146 353 159C358 180 350 201 344 222C329 270 309 318 292 366C263 442 233 518 201 591C185 626 170 661 153 695C143 717 125 735 119 758C112 783 117 812 131 835C134 840 139 847 147 846C161 844 169 831 174 819C207 740 240 661 271 581C299 514 326 445 350 376C367 330 385 283 408 240C415 228 424 216 428 202C433 178 423 154 407 137C394 122 374 110 353 111C352 111 351 110 350 111Z"></path>
<path id="z12363d3" d="M648 261C637 261 632 276 638 285C644 297 656 302 665 312C726 362 782 420 817 491C837 531 850 574 864 617C868 630 879 642 893 643C912 645 930 631 932 612C944 577 934 539 918 506C896 463 872 418 832 387C777 340 717 299 656 262C653 262 651 260 648 261Z"></path>
<defs>
	<clipPath id="z12363c1"><use xlink:href="#z12363d1"></use></clipPath>
	<clipPath id="z12363c2"><use xlink:href="#z12363d2"></use></clipPath>
	<clipPath id="z12363c3"><use xlink:href="#z12363d3"></use></clipPath>
</defs>
<path style="--d:1s;" pathLength="3333" clip-path="url(#z12363c1)" d="M 104,461 154,476 413,401 492,396 544,419 572,511 409,881 319,786"></path>
<path style="--d:2s;" pathLength="3333" clip-path="url(#z12363c2)" d="M 354,131 392,199 143,835"></path>
<path style="--d:3s;" pathLength="3333" clip-path="url(#z12363c3)" d="M 649,283 836,441 902,626"></path>
<g visibility="visible"><circle cx="123.15652570442303" cy="466.7469577113269" r="40" stroke="#000" fill="#fff" stroke-width="5"></circle><text x="123.15652570442303" y="486.7469577113269" text-anchor="middle" font-family="arial" font-weight="normal" fill="#000" font-size="60">1</text><circle cx="363.75642715329883" cy="148.4588696427453" r="40" stroke="#000" fill="#fff" stroke-width="5"></circle><text x="363.75642715329883" y="168.4588696427453" text-anchor="middle" font-family="arial" font-weight="normal" fill="#000" font-size="60">2</text><circle cx="664.2770181143252" cy="295.9078548773443" r="40" stroke="#000" fill="#fff" stroke-width="5"></circle><text x="664.2770181143252" y="315.9078548773443" text-anchor="middle" font-family="arial" font-weight="normal" fill="#000" font-size="60">3</text></g></svg>

