
<svg id="z12386" class="jozu" version="1.1" viewBox="0 0 1024 1024" xmlns="http://www.w3.org/2000/svg" xmlns:xlink="http://www.w3.org/1999/xlink">

<path id="z12386d1" d="M600 262C571 263 547 281 519 287C467 302 413 313 359 320C314 324 269 322 225 317C212 316 199 314 188 319C183 323 186 331 192 333C208 345 227 351 245 358C280 368 317 366 353 365C426 360 498 344 569 330C597 324 626 321 653 312C661 309 670 305 673 297C676 288 667 281 660 278C642 269 622 264 602 262C601 262 600 262 600 262Z"></path>
<path id="z12386d2" d="M425 98C415 98 408 110 415 117C429 137 428 163 423 185C412 241 394 295 380 350C356 442 329 533 301 625C292 647 278 669 278 693C279 713 290 731 305 745C315 749 326 741 331 734C359 701 393 673 429 649C478 619 533 601 588 586C622 578 659 573 693 580C724 587 754 607 761 638C768 664 764 691 757 716C747 751 720 778 692 800C645 836 590 863 533 882C515 888 496 891 479 899C472 902 466 913 472 919C478 926 489 927 496 923C582 903 668 877 742 828C780 802 813 765 823 719C831 680 827 637 807 602C787 570 751 546 712 541C646 528 577 541 515 562C460 581 409 609 359 638C385 528 413 419 446 311C458 273 470 235 486 199C493 187 501 174 498 159C495 142 481 127 468 116C456 106 441 98 425 98Z"></path>
<path id="z12386d3" d="M739 160C730 161 727 176 735 180C749 191 764 200 776 213C797 235 811 263 829 287C836 295 851 299 859 290C870 278 867 261 865 247C862 225 850 203 830 192C807 178 781 170 755 162C750 161 745 161 739 160Z"></path>
<path id="z12386d4" d="M807 92C798 91 795 107 803 111C818 122 835 131 846 146C867 168 881 195 898 220C906 229 922 230 929 219C940 205 935 186 932 170C927 151 916 132 897 123C873 108 846 100 819 93C815 92 811 91 807 92Z"></path>
<defs>
	<clipPath id="z12386c1"><use xlink:href="#z12386d1"></use></clipPath>
	<clipPath id="z12386c2"><use xlink:href="#z12386d2"></use></clipPath>
	<clipPath id="z12386c3"><use xlink:href="#z12386d3"></use></clipPath>
	<clipPath id="z12386c4"><use xlink:href="#z12386d4"></use></clipPath>
</defs>
<path style="--d:1s;" pathLength="3333" clip-path="url(#z12386c1)" d="M 199,326 366,344 666,291"></path>
<path style="--d:2s;" pathLength="3333" clip-path="url(#z12386c2)" d="M 425,108 475,153 311,679 315,710 516,575 705,553 793,614 782,767 663,864 482,917"></path>
<path style="--d:3s;" pathLength="3333" clip-path="url(#z12386c3)" d="M 744,174 833,218 849,282"></path>
<path style="--d:4s;" pathLength="3333" clip-path="url(#z12386c4)" d="M 813,104 897,150 919,212"></path>
<g visibility="var(--visibilty)"><circle cx="218.8848277072908" cy="328.143274842702" r="40" stroke="#000" fill="#fff" stroke-width="5"></circle><text x="218.8848277072908" y="348.143274842702" text-anchor="middle" font-family="arial" font-weight="normal" fill="#000" font-size="60">1</text><circle cx="439.8658829249433" cy="121.37929463244899" r="40" stroke="#000" fill="#fff" stroke-width="5"></circle><text x="439.8658829249433" y="141.379294632449" text-anchor="middle" font-family="arial" font-weight="normal" fill="#000" font-size="60">2</text><circle cx="761.9286514428327" cy="182.86360296050157" r="40" stroke="#000" fill="#fff" stroke-width="5"></circle><text x="761.9286514428327" y="202.86360296050157" text-anchor="middle" font-family="arial" font-weight="normal" fill="#000" font-size="60">3</text><circle cx="830.54192535683" cy="113.60629245731168" r="40" stroke="#000" fill="#fff" stroke-width="5"></circle><text x="830.54192535683" y="133.60629245731167" text-anchor="middle" font-family="arial" font-weight="normal" fill="#000" font-size="60">4</text></g></svg>

