
<svg id="z12389" class="jozu" version="1.1" viewBox="0 0 1024 1024" xmlns="http://www.w3.org/2000/svg" xmlns:xlink="http://www.w3.org/1999/xlink">

<path id="z12389d1" d="M686 309C565 311 448 348 335 388C276 409 215 424 152 432C136 434 118 437 103 445C96 449 91 459 96 467C102 479 114 487 124 494C146 507 173 509 197 502C233 488 268 470 304 457C360 437 416 419 472 399C547 375 625 361 703 360C736 360 769 363 799 376C833 391 854 426 861 462C868 498 860 535 844 568C829 601 805 629 776 651C697 715 604 757 509 791C502 794 493 799 493 808C493 819 506 825 516 823C530 820 544 815 557 811C629 789 700 764 766 728C814 700 858 664 889 617C918 570 933 511 920 456C910 409 880 365 837 343C791 318 738 308 686 309Z"></path>
<path id="z12389d2" d="M803 189C786 190 766 187 750 196C744 202 748 213 757 213C772 219 789 222 804 230C831 244 854 265 879 282C888 287 903 287 908 276C916 263 909 247 902 235C892 215 874 197 851 193C835 190 819 189 803 189Z"></path>
<path id="z12389d3" d="M867 100C848 102 829 100 811 107C804 111 806 123 814 124C834 131 854 135 871 146C897 160 919 179 942 196C953 201 970 195 972 182C975 164 963 148 954 133C943 119 928 107 910 104C896 101 881 100 867 100Z"></path>
<defs>
	<clipPath id="z12389c1"><use xlink:href="#z12389d1"></use></clipPath>
	<clipPath id="z12389c2"><use xlink:href="#z12389d2"></use></clipPath>
	<clipPath id="z12389c3"><use xlink:href="#z12389d3"></use></clipPath>
</defs>
<path style="--d:1s;" pathLength="3333" clip-path="url(#z12389c1)" d="M 104,461 197,462 501,359 791,344 891,438 878,590 683,747 508,809"></path>
<path style="--d:2s;" pathLength="3333" clip-path="url(#z12389c2)" d="M 762,205 860,216 897,271"></path>
<path style="--d:3s;" pathLength="3333" clip-path="url(#z12389c3)" d="M 823,116 917,130 959,181"></path>
<g visibility="var(--visibility)"><circle cx="123.99884389722149" cy="461.21504133222817" r="40" stroke="#000" fill="#fff" stroke-width="5"></circle><text x="123.99884389722149" y="481.21504133222817" text-anchor="middle" font-family="arial" font-weight="normal" fill="#000" font-size="60">1</text><circle cx="781.8751889612851" cy="207.23088855687894" r="40" stroke="#000" fill="#fff" stroke-width="5"></circle><text x="781.8751889612851" y="227.23088855687894" text-anchor="middle" font-family="arial" font-weight="normal" fill="#000" font-size="60">2</text><circle cx="842.7818035576363" cy="118.94622606177563" r="40" stroke="#000" fill="#fff" stroke-width="5"></circle><text x="842.7818035576363" y="138.94622606177563" text-anchor="middle" font-family="arial" font-weight="normal" fill="#000" font-size="60">3</text></g></svg>

