
<svg id="z12409" class="jozu" version="1.1" viewBox="0 0 1024 1024" xmlns="http://www.w3.org/2000/svg" xmlns:xlink="http://www.w3.org/1999/xlink">

<path id="z12409d1" d="M371 290C330 291 294 313 259 333C210 363 166 399 118 429C105 433 92 426 80 422C71 421 61 429 64 439C65 459 81 474 94 488C104 498 116 508 130 510C143 511 156 503 164 493C174 479 184 465 197 453C241 410 291 372 345 344C357 339 371 334 384 338C397 344 406 355 418 364C491 428 563 495 643 550C730 612 822 665 909 728C920 734 938 734 946 721C954 705 950 686 944 670C932 643 907 625 881 612C810 573 733 544 666 496C586 441 514 374 436 315C417 301 395 289 371 290Z"></path>
<path id="z12409d2" d="M739 220C730 221 727 236 735 240C749 251 764 260 776 273C797 295 811 323 829 347C836 355 851 359 859 350C870 338 867 321 865 307C862 285 850 263 830 252C807 238 781 230 755 222C750 221 745 221 739 220Z"></path>
<path id="z12409d3" d="M807 152C798 151 795 167 803 171C818 182 835 191 846 206C867 228 881 255 898 280C906 289 922 290 929 279C940 265 935 246 932 230C927 211 916 192 897 183C873 168 846 160 819 153C815 152 811 152 807 152Z"></path>
<defs>
	<clipPath id="z12409c1"><use xlink:href="#z12409d1"></use></clipPath>
	<clipPath id="z12409c2"><use xlink:href="#z12409d2"></use></clipPath>
	<clipPath id="z12409c3"><use xlink:href="#z12409d3"></use></clipPath>
</defs>
<path style="--d:1s;" pathLength="3333" clip-path="url(#z12409c1)" d="M 75,438 138,469 375,309 940,710"></path>
<path style="--d:2s;" pathLength="3333" clip-path="url(#z12409c2)" d="M 744,234 833,278 849,342"></path>
<path style="--d:3s;" pathLength="3333" clip-path="url(#z12409c3)" d="M 813,164 897,210 919,272"></path>
<g visibility="var(--visibilty)"><circle cx="92.94514969472039" cy="446.8301530243862" r="40" stroke="#000" fill="#fff" stroke-width="5"></circle><text x="92.94514969472039" y="466.8301530243862" text-anchor="middle" font-family="arial" font-weight="normal" fill="#000" font-size="60">1</text><circle cx="761.9286514428327" cy="242.86360296050157" r="40" stroke="#000" fill="#fff" stroke-width="5"></circle><text x="761.9286514428327" y="262.86360296050157" text-anchor="middle" font-family="arial" font-weight="normal" fill="#000" font-size="60">2</text><circle cx="830.54192535683" cy="173.6062924573117" r="40" stroke="#000" fill="#fff" stroke-width="5"></circle><text x="830.54192535683" y="193.6062924573117" text-anchor="middle" font-family="arial" font-weight="normal" fill="#000" font-size="60">3</text></g></svg>

