
<svg id="z12365" class="jozu" version="1.1" viewBox="0 0 1024 1024" xmlns="http://www.w3.org/2000/svg" xmlns:xlink="http://www.w3.org/1999/xlink">

<path id="z12365d1" d="M640 222C624 222 613 236 599 244C558 271 512 290 463 302C412 314 359 318 307 314C298 314 286 312 279 321C275 328 283 335 289 339C316 356 349 359 380 361C424 362 469 354 511 340C563 324 613 303 662 280C673 274 687 266 688 251C688 238 675 229 664 226C656 223 648 222 640 222Z"></path>
<path id="z12365d2" d="M739 398C728 398 718 403 710 410C643 458 553 488 481 494C448 496 415 494 382 496C373 496 364 496 361 505C358 512 368 517 374 521C407 537 444 544 481 542C608 534 679 488 734 467C752 460 771 454 784 440C790 433 792 423 787 416C778 404 763 398 749 398C742 398 742 398 739 398Z"></path>
<path id="z12365d3" d="M404 111C388 111 368 113 360 128C354 138 365 151 376 154C395 158 408 175 416 194C432 233 448 274 465 313C506 407 543 474 606 583C614 597 624 610 631 625C632 629 627 627 625 627C605 627 585 622 565 624C558 624 548 628 549 637C549 646 559 648 568 650C587 654 607 662 625 673C646 684 663 700 680 718C688 726 702 722 710 714C717 703 720 690 720 678C720 648 707 618 690 592C669 560 652 532 631 500C574 414 530 323 491 229C480 205 468 180 465 155C463 145 465 134 458 127C445 114 421 110 404 111Z"></path>
<path id="z12365d4" d="M303 721C291 723 284 735 277 744C267 756 261 771 261 787C260 824 282 858 311 878C351 908 401 917 449 923C509 930 570 929 631 926C641 926 653 924 659 914C666 904 660 890 651 882C640 874 627 869 614 864C599 858 582 857 567 862C514 871 459 867 405 858C371 851 336 842 309 820C297 809 290 791 293 775C294 760 305 748 310 734C312 729 310 721 303 721Z"></path>
<defs>
	<clipPath id="z12365c1"><use xlink:href="#z12365d1"></use></clipPath>
	<clipPath id="z12365c2"><use xlink:href="#z12365d2"></use></clipPath>
	<clipPath id="z12365c3"><use xlink:href="#z12365d3"></use></clipPath>
	<clipPath id="z12365c4"><use xlink:href="#z12365d4"></use></clipPath>
</defs>
<path style="--d:1s;" pathLength="3333" clip-path="url(#z12365c1)" d="M 294,332 433,342 677,253"></path>
<path style="--d:2s;" pathLength="3333" clip-path="url(#z12365c2)" d="M 376,512 526,520 777,426"></path>
<path style="--d:3s;" pathLength="3333" clip-path="url(#z12365c3)" d="M 367,135 414,140 688,620 688,693 636,653 572,642"></path>
<path style="--d:4s;" pathLength="3333" clip-path="url(#z12365c4)" d="M 299,734 273,794 322,870 628,903"></path>
<g visibility="visible"><circle cx="313.94844289216957" cy="333.4351397764151" r="40" stroke="#000" fill="#fff" stroke-width="5"></circle><text x="313.94844289216957" y="353.4351397764151" text-anchor="middle" font-family="arial" font-weight="normal" fill="#000" font-size="60">1</text><circle cx="395.9716160935565" cy="513.065152858323" r="40" stroke="#000" fill="#fff" stroke-width="5"></circle><text x="395.9716160935565" y="533.065152858323" text-anchor="middle" font-family="arial" font-weight="normal" fill="#000" font-size="60">2</text><circle cx="386.8877782635822" cy="137.11572109187045" r="40" stroke="#000" fill="#fff" stroke-width="5"></circle><text x="386.8877782635822" y="157.11572109187045" text-anchor="middle" font-family="arial" font-weight="normal" fill="#000" font-size="60">3</text><circle cx="291.047851247314" cy="752.3511125061984" r="40" stroke="#000" fill="#fff" stroke-width="5"></circle><text x="291.047851247314" y="772.3511125061984" text-anchor="middle" font-family="arial" font-weight="normal" fill="#000" font-size="60">4</text></g></svg>

