
<svg id="z12407" class="jozu" version="1.1" viewBox="0 0 1024 1024" xmlns="http://www.w3.org/2000/svg" xmlns:xlink="http://www.w3.org/1999/xlink">

<path id="z12407d1" d="M433 131C419 131 416 154 429 159C464 176 497 202 515 237C518 243 514 251 508 253C487 265 467 277 449 293C440 300 430 307 428 319C427 324 433 329 438 326C455 319 469 307 486 303C514 295 543 293 572 295C582 296 596 295 600 285C608 270 601 252 595 238C579 199 548 166 510 149C486 138 459 131 433 131Z"></path>
<path id="z12407d2" d="M405 371C394 373 389 386 386 395C378 415 375 438 385 458C405 501 444 529 472 566C496 596 513 632 520 670C527 708 525 748 515 785C508 804 489 815 470 816C441 820 413 812 387 799C371 790 360 775 342 769C336 767 328 770 326 777C323 786 329 795 335 801C349 814 364 826 379 837C408 858 442 874 479 871C510 871 542 860 562 835C586 806 594 767 591 731C589 680 573 629 544 586C518 545 482 513 451 478C436 460 420 440 418 416C415 402 416 388 411 374C410 372 407 371 405 371Z"></path>
<path id="z12407d3" d="M102 669C91 670 87 682 88 691C87 749 109 804 141 851C151 867 165 883 184 889C201 891 215 876 216 860C221 833 226 806 234 780C236 772 240 763 235 755C228 748 216 752 210 758C199 767 189 781 173 782C163 779 161 768 154 761C135 736 124 706 113 676C110 672 106 669 102 669Z"></path>
<path id="z12407d4" d="M743 551C732 551 728 567 737 573C752 590 771 602 784 620C809 650 824 687 834 724C841 745 847 768 862 785C874 799 897 805 913 793C925 784 928 768 926 755C924 728 912 703 900 679C874 631 831 593 783 568C770 561 757 554 744 551C743 551 743 551 743 551Z"></path>
<path id="z12407d5" d="M859 144C822 146 785 168 770 203C754 239 762 285 791 313C810 332 837 342 863 340C894 339 925 324 941 297C958 271 963 236 952 207C938 169 898 144 859 144ZM863 188C888 188 912 210 913 235C915 254 910 275 893 286C872 302 839 300 820 281C809 271 805 255 806 241C806 219 821 194 844 190C850 189 857 188 863 188C860 159 860 159 859 144Z"></path>
<defs>
	<clipPath id="z12407c1"><use xlink:href="#z12407d1"></use></clipPath>
	<clipPath id="z12407c2"><use xlink:href="#z12407d2"></use></clipPath>
	<clipPath id="z12407c3"><use xlink:href="#z12407d3"></use></clipPath>
	<clipPath id="z12407c4"><use xlink:href="#z12407d4"></use></clipPath>
	<clipPath id="z12407c5"><use xlink:href="#z12407d5"></use></clipPath>
</defs>
<path style="--d:1s;" pathLength="3333" clip-path="url(#z12407c1)" d="M 440,147 558,213 573,259 451,306"></path>
<path style="--d:2s;" pathLength="3333" clip-path="url(#z12407c2)" d="M 403,387 403,466 506,564 571,746 525,831 412,840 342,785"></path>
<path style="--d:3s;" pathLength="3333" clip-path="url(#z12407c3)" d="M 106,684 110,742 181,847 224,767"></path>
<path style="--d:4s;" pathLength="3333" clip-path="url(#z12407c4)" d="M 750,565 865,673 905,781"></path>
<path style="--d:5s;" pathLength="3333" clip-path="url(#z12407c5)" d="M 858,163 786,201 790,281 858,324 936,280 933,202 858,163"></path>
<g visibility="var(--visibility)"><circle cx="457.45516294246266" cy="156.76305723900452" r="40" stroke="#000" fill="#fff" stroke-width="5"></circle><text x="457.45516294246266" y="176.76305723900452" text-anchor="middle" font-family="arial" font-weight="normal" fill="#000" font-size="60">1</text><circle cx="403" cy="407" r="40" stroke="#000" fill="#fff" stroke-width="5"></circle><text x="403" y="427" text-anchor="middle" font-family="arial" font-weight="normal" fill="#000" font-size="60">2</text><circle cx="107.37604183230756" cy="703.9526065684597" r="40" stroke="#000" fill="#fff" stroke-width="5"></circle><text x="107.37604183230756" y="723.9526065684597" text-anchor="middle" font-family="arial" font-weight="normal" fill="#000" font-size="60">3</text><circle cx="764.578878351964" cy="578.6914683653227" r="40" stroke="#000" fill="#fff" stroke-width="5"></circle><text x="764.578878351964" y="598.6914683653227" text-anchor="middle" font-family="arial" font-weight="normal" fill="#000" font-size="60">4</text><circle cx="840.3123049430606" cy="172.33517239116244" r="40" stroke="#000" fill="#fff" stroke-width="5"></circle><text x="840.3123049430606" y="192.33517239116244" text-anchor="middle" font-family="arial" font-weight="normal" fill="#000" font-size="60">5</text></g></svg>

