
<svg id="z12454" class="jozu" version="1.1" viewBox="0 0 1024 1024" xmlns="http://www.w3.org/2000/svg" xmlns:xlink="http://www.w3.org/1999/xlink">

<path id="z12454d1" d="M445 95C442 118 456 139 461 162C469 200 471 252 473 291C473 308 524 298 524 281C522 253 526 216 532 191C536 172 548 153 545 133C542 120 528 112 517 106C485 89 447 75 445 95Z"></path>
<path id="z12454d2" d="M184 298C178 298 168 301 169 309C169 327 178 344 183 361C191 396 196 432 200 467C203 496 209 528 230 550C237 558 247 566 258 570C265 571 271 566 272 558C275 529 272 500 266 473C257 430 249 412 242 369C239 355 243 338 234 327C227 317 203 298 184 298Z"></path>
<path id="z12454d3" d="M735 220C711 224 689 234 667 242C619 257 554 275 524 281C490 288 490 288 473 291C425 300 376 307 328 314C298 318 264 323 234 327C220 329 228 369 242 369C282 370 326 368 366 359C455 338 546 318 637 308C665 304 693 301 722 306C731 307 742 313 745 325C749 342 742 361 736 378C717 430 691 478 665 527C607 630 553 716 374 895C349 919 349 937 384 916C522 830 647 675 679 628C722 563 754 494 790 427C802 402 816 378 836 359C843 350 855 341 856 329C856 310 842 295 832 283C810 258 785 236 755 224C749 221 741 218 735 220Z"></path>
<defs>
	<clipPath id="z12454c1"><use xlink:href="#z12454d1"></use></clipPath>
	<clipPath id="z12454c2"><use xlink:href="#z12454d2"></use></clipPath>
	<clipPath id="z12454c3"><use xlink:href="#z12454d3"></use></clipPath>
</defs>
<path style="--d:1s;" pathLength="3333" clip-path="url(#z12454c1)" d="M 458,99 503,151 483,281"></path>
<path style="--d:2s;" pathLength="3333" clip-path="url(#z12454c2)" d="M 182,308 258,559"></path>
<path style="--d:3s;" pathLength="3333" clip-path="url(#z12454c3)" d="M 243,333 326,336 758,251 820,318 530,776 373,915"></path>
<g visibility="var(--visibilty)"><circle cx="471.0875348887788" cy="114.12337364925554" r="40" stroke="#000" fill="#fff" stroke-width="5"></circle><text x="471.0875348887788" y="134.12337364925554" text-anchor="middle" font-family="arial" font-weight="normal" fill="#000" font-size="60">1</text><circle cx="187.79591454747606" cy="327.1417704133749" r="40" stroke="#000" fill="#fff" stroke-width="5"></circle><text x="187.79591454747606" y="347.1417704133749" text-anchor="middle" font-family="arial" font-weight="normal" fill="#000" font-size="60">2</text><circle cx="262.98694848137114" cy="333.7224198246279" r="40" stroke="#000" fill="#fff" stroke-width="5"></circle><text x="262.98694848137114" y="353.7224198246279" text-anchor="middle" font-family="arial" font-weight="normal" fill="#000" font-size="60">3</text></g></svg>

