
<svg id="z12458" class="jozu" version="1.1" viewBox="0 0 1024 1024" xmlns="http://www.w3.org/2000/svg" xmlns:xlink="http://www.w3.org/1999/xlink">

<path id="z12458d1" d="M796 281C739 285 601 312 588 315C553 321 553 321 536 324C461 336 388 353 313 362C260 368 206 365 154 356C149 355 139 354 139 361C139 366 145 369 148 372C165 389 186 402 207 413C234 427 265 432 296 426C335 418 372 405 412 399C452 392 493 380 535 376C569 372 569 372 586 370C768 348 796 352 856 346C867 344 866 334 865 331C855 307 835 289 812 282C807 280 801 280 796 281Z"></path>
<path id="z12458d2" d="M523 107C514 114 515 118 516 124C519 150 528 174 530 201C532 241 536 283 536 324C535 359 535 359 535 376C536 457 536 457 536 497C536 550 537 603 538 664C538 698 540 732 538 766C536 780 534 794 526 806C516 818 499 819 484 815C462 807 421 771 421 788C421 801 464 845 487 873C499 889 504 894 522 913C529 920 539 919 548 907C568 879 588 850 598 816C603 797 598 776 596 756C590 697 588 637 588 578C587 508 583 439 586 370C587 333 587 333 588 315C592 262 605 204 625 177C628 171 629 164 624 159C598 133 580 120 550 107C542 103 528 101 523 107Z"></path>
<path id="z12458d3" d="M535 376C524 403 498 442 479 472C417 569 325 662 211 765C180 791 202 789 230 772C294 730 358 690 413 637C461 590 512 530 536 497C560 465 550 339 535 376Z"></path>
<defs>
	<clipPath id="z12458c1"><use xlink:href="#z12458d1"></use></clipPath>
	<clipPath id="z12458c2"><use xlink:href="#z12458d2"></use></clipPath>
	<clipPath id="z12458c3"><use xlink:href="#z12458d3"></use></clipPath>
</defs>
<path style="--d:1s;" pathLength="3333" clip-path="url(#z12458c1)" d="M 149,363 272,399 791,317 860,340.1"></path>
<path style="--d:2s;" pathLength="3333" clip-path="url(#z12458c2)" d="M 524,116 577,167 538,904 429,792.1"></path>
<path style="--d:3s;" pathLength="3333" clip-path="url(#z12458c3)" d="M 530,407 407,619 272,732 207,777.8"></path>
<g visibility="var(--visibilty)"><circle cx="168.19474814016542" cy="368.61797506541427" r="40" stroke="#000" fill="#fff" stroke-width="5"></circle><text x="168.19474814016542" y="388.61797506541427" text-anchor="middle" font-family="arial" font-weight="normal" fill="#000" font-size="60">1</text><circle cx="538.4114351802879" cy="129.86760743763546" r="40" stroke="#000" fill="#fff" stroke-width="5"></circle><text x="538.4114351802879" y="149.86760743763546" text-anchor="middle" font-family="arial" font-weight="normal" fill="#000" font-size="60">2</text><circle cx="519.963195921042" cy="424.29920703039915" r="40" stroke="#000" fill="#fff" stroke-width="5"></circle><text x="519.963195921042" y="444.29920703039915" text-anchor="middle" font-family="arial" font-weight="normal" fill="#000" font-size="60">3</text></g></svg>
