
<svg id="z12367" class="jozu" version="1.1" viewBox="0 0 1024 1024" xmlns="http://www.w3.org/2000/svg" xmlns:xlink="http://www.w3.org/1999/xlink">

<path id="z12367d1" d="M554 99C543 100 538 115 545 122C555 140 556 163 543 180C509 237 469 290 427 341C392 385 355 426 321 470C311 485 308 505 316 522C326 549 350 569 366 592C442 691 512 794 578 900C586 912 598 924 613 923C634 920 650 900 649 880C650 861 642 843 631 828C577 744 507 673 441 600C414 571 384 544 363 511C358 498 368 485 376 476C444 400 511 324 581 250C598 234 616 219 636 207C645 198 642 183 636 173C621 147 602 122 576 106C569 102 562 100 554 99Z"></path>
<defs>
	<clipPath id="z12367c1"><use xlink:href="#z12367d1"></use></clipPath>
</defs>
<path style="--d:1s;" pathLength="3333" clip-path="url(#z12367c1)" d="M 561,111 605,180 337,479 346,523 625,884.9"></path>
<g visibility="visible"><circle cx="571.753318832347" cy="127.86315907799873" r="40" stroke="#000" fill="#fff" stroke-width="5"></circle><text x="571.753318832347" y="147.86315907799872" text-anchor="middle" font-family="arial" font-weight="normal" fill="#000" font-size="60">1</text></g></svg>

