
<svg id="z12461" class="jozu" version="1.1" viewBox="0 0 1024 1024" xmlns="http://www.w3.org/2000/svg" xmlns:xlink="http://www.w3.org/1999/xlink">

<path id="z12461d1" d="M707 258C659 267 646 276 601 294C546 314 429 354 288 366C235 370 240 376 271 401C291 416 316 417 339 415C476 399 671 340 758 301C765 297 776 289 773 279C768 267 755 263 743 260C732 257 718 255 707 258Z"></path>
<path id="z12461d2" d="M824 482C788 484 752 498 716 506C620 526 525 549 429 572C344 592 259 604 173 621C167 623 156 625 156 634C159 643 168 649 174 657C188 671 206 686 228 685C259 683 287 667 317 657C386 631 457 615 529 599C628 576 728 559 830 554C857 552 885 552 912 550C920 549 930 543 928 534C925 521 912 514 902 506C879 492 852 482 824 482Z"></path>
<path id="z12461d3" d="M444 109C429 110 424 120 426 129C432 157 452 168 456 203C469 266 477 330 485 394C495 477 503 560 511 643C515 681 513 730 511 758C507 802 508 833 526 869C533 883 545 907 563 911C573 912 579 899 582 890C589 863 583 834 581 808C572 688 557 571 544 452C536 380 527 308 525 236C526 220 524 202 533 188C538 179 546 168 540 158C531 145 516 138 504 130C486 120 466 109 444 109Z"></path>
<defs>
	<clipPath id="z12461c1"><use xlink:href="#z12461d1"></use></clipPath>
	<clipPath id="z12461c2"><use xlink:href="#z12461d2"></use></clipPath>
	<clipPath id="z12461c3"><use xlink:href="#z12461d3"></use></clipPath>
</defs>
<path style="--d:1s;" pathLength="3333" clip-path="url(#z12461c1)" d="M 262,375 425,372 760,271"></path>
<path style="--d:2s;" pathLength="3333" clip-path="url(#z12461c2)" d="M 164,634 810,519 919,534"></path>
<path style="--d:3s;" pathLength="3333" clip-path="url(#z12461c3)" d="M 441,126 494,161 565,902"></path>
<g visibility="var(--visibility)"><circle cx="281.99661345397044" cy="374.63196416955884" r="40" stroke="#000" fill="#fff" stroke-width="5"></circle><text x="281.99661345397044" y="394.63196416955884" text-anchor="middle" font-family="arial" font-weight="normal" fill="#000" font-size="60">1</text><circle cx="183.69043252474972" cy="630.4947372440461" r="40" stroke="#000" fill="#fff" stroke-width="5"></circle><text x="183.69043252474972" y="650.4947372440461" text-anchor="middle" font-family="arial" font-weight="normal" fill="#000" font-size="60">2</text><circle cx="457.6892921950346" cy="137.0212306948342" r="40" stroke="#000" fill="#fff" stroke-width="5"></circle><text x="457.6892921950346" y="157.0212306948342" text-anchor="middle" font-family="arial" font-weight="normal" fill="#000" font-size="60">3</text></g></svg>
