
<svg id="z12463" class="jozu" version="1.1" viewBox="0 0 1024 1024" xmlns="http://www.w3.org/2000/svg" xmlns:xlink="http://www.w3.org/1999/xlink">

<path id="z12463d1" d="M488 102C469 102 471 115 471 127C468 174 448 220 428 263C402 314 368 360 331 401C299 436 259 462 229 497C223 502 215 510 215 519C214 529 228 525 235 524C251 519 266 507 281 498C308 480 348 449 385 413C424 373 458 329 470 309C483 285 483 285 490 273C516 224 540 197 560 160C565 148 553 136 544 130C527 117 510 101 488 102Z"></path>
<path id="z12463d2" d="M742 213C727 213 715 224 702 228C632 246 549 266 490 273C476 275 457 305 470 309C501 320 533 315 566 309C607 300 648 290 689 279C694 277 707 276 709 284C711 297 705 312 702 325C692 360 680 395 664 428C629 497 584 562 536 624C500 669 462 714 419 752C360 803 296 850 229 889C218 894 208 899 199 906C194 909 192 919 200 922C213 926 228 920 242 918C308 904 366 866 420 826C464 791 505 752 543 709C573 674 602 638 628 599C680 518 731 435 775 348C787 322 809 303 833 287C841 281 839 266 832 259C817 243 798 235 781 226C769 219 756 213 742 213Z"></path>
<defs>
	<clipPath id="z12463c1"><use xlink:href="#z12463d1"></use></clipPath>
	<clipPath id="z12463c2"><use xlink:href="#z12463d2"></use></clipPath>
</defs>
<path style="--d:1s;" pathLength="3333" clip-path="url(#z12463c1)" d="M 492,116 509,157 442,297 361,402 228,518"></path>
<path style="--d:2s;" pathLength="3333" clip-path="url(#z12463c2)" d="M 484,301 727,250 779,291 605,574 497,717 355,840 206,915"></path>
<g visibility="var(--visibility)"><circle cx="499.6603004540087" cy="134.47484227143264" r="40" stroke="#000" fill="#fff" stroke-width="5"></circle><text x="499.6603004540087" y="154.47484227143264" text-anchor="middle" font-family="arial" font-weight="normal" fill="#000" font-size="60">1</text><circle cx="503.5735558238977" cy="296.8919697653548" r="40" stroke="#000" fill="#fff" stroke-width="5"></circle><text x="503.5735558238977" y="316.8919697653548" text-anchor="middle" font-family="arial" font-weight="normal" fill="#000" font-size="60">2</text></g></svg>
