
<svg id="z12467" class="jozu" version="1.1" viewBox="0 0 1024 1024" xmlns="http://www.w3.org/2000/svg" xmlns:xlink="http://www.w3.org/1999/xlink">

<path id="z12467d1" d="M721 248C720 248 720 248 719 248C675 251 635 268 592 276C482 299 368 301 255 306C163 311 206 337 241 361C260 374 283 381 305 379C336 377 367 372 398 366C477 352 555 330 635 327C652 327 671 326 684 338C695 347 693 362 691 374C688 409 680 443 674 477C665 522 640 620 626 672C618 696 698 704 702 679C712 630 744 526 759 481C775 436 795 391 827 354C833 347 829 337 824 330C811 310 793 294 775 279C759 266 742 253 722 248C721 248 721 248 721 248Z"></path>
<path id="z12467d2" d="M626 672C573 676 522 690 469 696C383 706 296 714 209 715C181 716 201 742 209 751C228 771 256 781 283 781C333 780 380 766 428 756C475 747 523 741 571 740C617 739 673 745 708 733C735 723 733 691 702 679C678 670 651 672 626 672Z"></path>
<defs>
	<clipPath id="z12467c1"><use xlink:href="#z12467d1"></use></clipPath>
	<clipPath id="z12467c2"><use xlink:href="#z12467d2"></use></clipPath>
</defs>
<path style="--d:1s;" pathLength="3333" clip-path="url(#z12467c1)" d="M 212,320 689,298 762,343 673,664"></path>
<path style="--d:2s;" pathLength="3333" clip-path="url(#z12467c2)" d="M 211,725 722,708.4"></path>
<g visibility="visible"><circle cx="231.9787618636671" cy="319.07854767085814" r="40" stroke="#000" fill="#fff" stroke-width="5"></circle><text x="231.9787618636671" y="339.07854767085814" text-anchor="middle" font-family="arial" font-weight="normal" fill="#000" font-size="60">1</text><circle cx="230.98894151257923" cy="724.3350058596598" r="40" stroke="#000" fill="#fff" stroke-width="5"></circle><text x="230.98894151257923" y="744.3350058596598" text-anchor="middle" font-family="arial" font-weight="normal" fill="#000" font-size="60">2</text></g></svg>
