
<svg id="z12471" class="jozu" version="1.1" viewBox="0 0 1024 1024" xmlns="http://www.w3.org/2000/svg" xmlns:xlink="http://www.w3.org/1999/xlink">

<path id="z12471d1" d="M301 145C354 170 389 196 426 232C441 245 453 261 470 273C486 286 513 275 519 255C525 233 515 201 502 183C481 155 425 128 307 107C259 99 269 129 301 145Z"></path>
<path id="z12471d2" d="M179 412C307 483 324 523 361 545C374 554 391 542 398 529C410 507 399 466 381 450C342 413 278 392 226 382C135 365 172 409 179 412Z"></path>
<path id="z12471d3" d="M876 338C632 651 420 742 357 781C312 810 263 765 259 809C257 830 279 850 293 865C312 888 357 948 383 908C407 872 443 845 477 818C561 751 749 601 880 399C908 356 906 299 876 338Z"></path>
<defs>
	<clipPath id="z12471c1"><use xlink:href="#z12471d1"></use></clipPath>
	<clipPath id="z12471c2"><use xlink:href="#z12471d2"></use></clipPath>
	<clipPath id="z12471c3"><use xlink:href="#z12471d3"></use></clipPath>
</defs>
<path style="--d:1s;" pathLength="3333" clip-path="url(#z12471c1)" d="M 284,117 465,212 485,271"></path>
<path style="--d:2s;" pathLength="3333" clip-path="url(#z12471c2)" d="M 175,390 343,474 369,538"></path>
<path style="--d:3s;" pathLength="3333" clip-path="url(#z12471c3)" d="M 270,816 358,861 713,570 896,338"></path>
<g visibility="var(--visibility)"><circle cx="301.70896463165695" cy="126.29476044202988" r="40" stroke="#000" fill="#fff" stroke-width="5"></circle><text x="301.70896463165695" y="146.29476044202988" text-anchor="middle" font-family="arial" font-weight="normal" fill="#000" font-size="60">1</text><circle cx="192.88854381999832" cy="398.94427190999915" r="40" stroke="#000" fill="#fff" stroke-width="5"></circle><text x="192.88854381999832" y="418.94427190999915" text-anchor="middle" font-family="arial" font-weight="normal" fill="#000" font-size="60">2</text><circle cx="287.8068710205652" cy="825.1057863173345" r="40" stroke="#000" fill="#fff" stroke-width="5"></circle><text x="287.8068710205652" y="845.1057863173345" text-anchor="middle" font-family="arial" font-weight="normal" fill="#000" font-size="60">3</text></g></svg>
