
<svg id="z12473" class="jozu" version="1.1" viewBox="0 0 1024 1024" xmlns="http://www.w3.org/2000/svg" xmlns:xlink="http://www.w3.org/1999/xlink">

<path id="z12473d1" d="M678 176C638 176 603 199 566 212C448 252 350 266 213 291C175 298 230 348 272 350C301 350 329 338 356 328C415 303 510 275 593 257C644 245 651 260 621 315C582 385 521 470 443 558C371 640 284 724 201 800C139 856 152 878 214 837C342 752 438 666 518 578C518 578 518 578 518 578C533 561 533 561 541 552C541 552 541 552 541 552C612 471 669 388 726 302C739 282 762 271 783 260C800 249 763 219 749 209C731 195 699 176 682 176C679 176 679 176 678 176Z"></path>
<path id="z12473d2" d="M518 578C569 614 630 669 670 714C712 760 752 811 803 847C819 858 843 864 860 851C876 839 878 816 873 797C864 759 836 729 807 705C754 660 690 627 629 595C578 569 560 562 541 552C531 546 509 571 518 578Z"></path>
<defs>
	<clipPath id="z12473c1"><use xlink:href="#z12473d1"></use></clipPath>
	<clipPath id="z12473c2"><use xlink:href="#z12473d2"></use></clipPath>
</defs>
<path style="--d:1s;" pathLength="3333" clip-path="url(#z12473c1)" d="M 210,304 302,303 667,209 729,253 464,579 174,850"></path>
<path style="--d:2s;" pathLength="3333" clip-path="url(#z12473c2)" d="M 531,579 867,834"></path>
<g visibility="var(--visibility)"><circle cx="229.99881863020067" cy="303.78262153662826" r="40" stroke="#000" fill="#fff" stroke-width="5"></circle><text x="229.99881863020067" y="323.78262153662826" text-anchor="middle" font-family="arial" font-weight="normal" fill="#000" font-size="60">1</text><circle cx="546.931463306668" cy="591.0908426880962" r="40" stroke="#000" fill="#fff" stroke-width="5"></circle><text x="546.931463306668" y="611.0908426880962" text-anchor="middle" font-family="arial" font-weight="normal" fill="#000" font-size="60">2</text></g></svg>
