
<svg id="z12477" class="jozu" version="1.1" viewBox="0 0 1024 1024" xmlns="http://www.w3.org/2000/svg" xmlns:xlink="http://www.w3.org/1999/xlink">

<path id="z12477d1" d="M189 245C184 244 180 249 182 254C187 270 199 283 208 296C238 335 268 375 300 412C314 427 331 441 351 446C367 449 383 438 385 422C391 397 380 372 365 353C337 322 301 300 265 278C243 265 220 252 195 245C193 245 191 245 189 245Z"></path>
<path id="z12477d2" d="M789 176C781 175 774 183 775 191C777 228 770 265 758 299C724 396 672 484 611 566C535 668 443 758 346 841C330 855 313 869 301 887C299 890 298 897 304 897C315 897 326 890 337 885C435 834 524 766 603 687C665 624 717 553 766 479C803 426 826 362 869 313C876 305 885 299 891 291C897 278 890 264 884 253C867 228 844 207 820 188C811 182 801 176 789 176Z"></path>
<defs>
	<clipPath id="z12477c1"><use xlink:href="#z12477d1"></use></clipPath>
	<clipPath id="z12477c2"><use xlink:href="#z12477d2"></use></clipPath>
</defs>
<path style="--d:1s;" pathLength="3333" clip-path="url(#z12477c1)" d="M 197,257 365,426"></path>
<path style="--d:2s;" pathLength="3333" clip-path="url(#z12477c2)" d="M 790,194 831,296 636,605 495,753 315,887"></path>
<g visibility="var(--visibilty)"><circle cx="211.100108752454" cy="271.1840379712186" r="40" stroke="#000" fill="#fff" stroke-width="5"></circle><text x="211.100108752454" y="291.1840379712186" text-anchor="middle" font-family="arial" font-weight="normal" fill="#000" font-size="60">1</text><circle cx="797.4591703410132" cy="212.55696036056952" r="40" stroke="#000" fill="#fff" stroke-width="5"></circle><text x="797.4591703410132" y="232.55696036056952" text-anchor="middle" font-family="arial" font-weight="normal" fill="#000" font-size="60">2</text></g></svg>
