
<svg id="z12481" class="jozu" version="1.1" viewBox="0 0 1024 1024" xmlns="http://www.w3.org/2000/svg" xmlns:xlink="http://www.w3.org/1999/xlink">

<path id="z12481d1" d="M631 99C607 99 596 138 576 153C526 189 446 228 321 266C237 292 296 296 325 294C372 291 424 279 473 264C473 264 473 264 473 264C504 255 504 255 520 251C595 227 659 203 689 202C746 202 669 111 641 101C638 100 634 99 631 99Z"></path>
<path id="z12481d2" d="M259 482C78 497 131 517 149 531C163 541 178 550 194 555C222 563 251 553 279 546C349 531 423 509 570 489C664 476 760 477 855 486C868 488 883 490 895 484C908 478 909 458 899 448C890 439 881 430 870 423C852 411 830 409 810 410C769 411 728 417 688 422C648 427 328 476 259 482Z"></path>
<path id="z12481d3" d="M473 264C496 383 493 659 393 816C282 990 365 919 425 851C554 707 558 424 558 417C559 380 558 350 575 317C587 295 541 264 520 251C506 243 470 248 473 264Z"></path>
<defs>
	<clipPath id="z12481c1"><use xlink:href="#z12481d1"></use></clipPath>
	<clipPath id="z12481c2"><use xlink:href="#z12481d2"></use></clipPath>
	<clipPath id="z12481c3"><use xlink:href="#z12481d3"></use></clipPath>
</defs>
<path style="--d:1s;" pathLength="3333" clip-path="url(#z12481c1)" d="M 629,116 660,170 443,252 288,287"></path>
<path style="--d:2s;" pathLength="3333" clip-path="url(#z12481c2)" d="M 139,508 230,517 772,429 888,472"></path>
<path style="--d:3s;" pathLength="3333" clip-path="url(#z12481c3)" d="M 500,273 533,312 487,725 349,916"></path>
<g visibility="var(--visibilty)"><circle cx="638.9573503710664" cy="133.34506193669614" r="40" stroke="#000" fill="#fff" stroke-width="5"></circle><text x="638.9573503710664" y="153.34506193669614" text-anchor="middle" font-family="arial" font-weight="normal" fill="#000" font-size="60">1</text><circle cx="158.90289749932637" cy="509.9684184339993" r="40" stroke="#000" fill="#fff" stroke-width="5"></circle><text x="158.90289749932637" y="529.9684184339993" text-anchor="middle" font-family="arial" font-weight="normal" fill="#000" font-size="60">2</text><circle cx="512.9188448293235" cy="288.2677257073823" r="40" stroke="#000" fill="#fff" stroke-width="5"></circle><text x="512.9188448293235" y="308.2677257073823" text-anchor="middle" font-family="arial" font-weight="normal" fill="#000" font-size="60">3</text></g></svg>
