
<svg id="z12484" class="jozu" version="1.1" viewBox="0 0 1024 1024" xmlns="http://www.w3.org/2000/svg" xmlns:xlink="http://www.w3.org/1999/xlink">

<path id="z12484d1" d="M129 292C165 343 182 394 212 448C219 460 233 470 247 465C272 455 279 426 276 402C271 369 240 327 163 275C134 255 115 271 129 292Z"></path>
<path id="z12484d2" d="M390 226C429 274 452 325 478 383C490 409 543 388 540 336C539 303 523 272 429 206C386 175 363 193 390 226Z"></path>
<path id="z12484d3" d="M783 196C719 195 754 250 742 297C721 379 595 618 395 802C310 880 322 906 410 841C610 694 732 529 834 363C847 340 855 322 878 310C925 288 825 196 783 196Z"></path>
<defs>
	<clipPath id="z12484c1"><use xlink:href="#z12484d1"></use></clipPath>
	<clipPath id="z12484c2"><use xlink:href="#z12484d2"></use></clipPath>
	<clipPath id="z12484c3"><use xlink:href="#z12484d3"></use></clipPath>
</defs>
<path style="--d:1s;" pathLength="3333" clip-path="url(#z12484c1)" d="M 141,281 248,456.2"></path>
<path style="--d:2s;" pathLength="3333" clip-path="url(#z12484c2)" d="M 391,197 485,313 502,384"></path>
<path style="--d:3s;" pathLength="3333" clip-path="url(#z12484c3)" d="M 768,206 822,280 625,625 351,865.8"></path>
<g visibility="var(--visibilty)"><circle cx="151.43294389860338" cy="298.0632260023887" r="40" stroke="#000" fill="#fff" stroke-width="5"></circle><text x="151.43294389860338" y="318.0632260023887" text-anchor="middle" font-family="arial" font-weight="normal" fill="#000" font-size="60">1</text><circle cx="403.59166996554006" cy="212.53865655321965" r="40" stroke="#000" fill="#fff" stroke-width="5"></circle><text x="403.59166996554006" y="232.53865655321965" text-anchor="middle" font-family="arial" font-weight="normal" fill="#000" font-size="60">2</text><circle cx="779.7893814011885" cy="222.15581895718418" r="40" stroke="#000" fill="#fff" stroke-width="5"></circle><text x="779.7893814011885" y="242.15581895718418" text-anchor="middle" font-family="arial" font-weight="normal" fill="#000" font-size="60">3</text></g></svg>
