
<svg id="z12486" class="jozu" version="1.1" viewBox="0 0 1024 1024" xmlns="http://www.w3.org/2000/svg" xmlns:xlink="http://www.w3.org/1999/xlink">

<path id="z12486d1" d="M648 98C596 104 496 124 326 139C255 145 351 208 413 197C492 182 566 167 699 151C710 150 726 144 729 131C731 120 710 91 648 98Z"></path>
<path id="z12486d2" d="M792 332C758 333 725 343 691 349C547 375 401 391 255 398C211 400 167 403 122 404C61 407 132 465 160 477C183 487 210 491 234 482C271 468 325 454 494 436C547 430 547 430 574 427C737 408 781 410 908 423C918 424 930 416 930 404C930 384 916 366 898 356C869 340 833 331 792 332Z"></path>
<path id="z12486d3" d="M494 436C500 451 504 473 501 489C488 559 467 628 434 691C402 754 375 791 322 871C268 954 326 923 370 874C429 810 485 727 520 663C551 604 574 527 601 491C618 467 582 435 574 427C555 408 484 411 494 436Z"></path>
<defs>
	<clipPath id="z12486c1"><use xlink:href="#z12486d1"></use></clipPath>
	<clipPath id="z12486c2"><use xlink:href="#z12486d2"></use></clipPath>
	<clipPath id="z12486c3"><use xlink:href="#z12486d3"></use></clipPath>
</defs>
<path style="--d:1s;" pathLength="3333" clip-path="url(#z12486c1)" d="M 307,151 719,130"></path>
<path style="--d:2s;" pathLength="3333" clip-path="url(#z12486c2)" d="M 109,418 274,438 768,370 926,412"></path>
<path style="--d:3s;" pathLength="3333" clip-path="url(#z12486c3)" d="M 511,445 557,477 453,731 310,915"></path>
<g visibility="visible"><circle cx="326.9740702141007" cy="149.98190418811623" r="40" stroke="#000" fill="#fff" stroke-width="5"></circle><text x="326.9740702141007" y="169.98190418811623" text-anchor="middle" font-family="arial" font-weight="normal" fill="#000" font-size="60">1</text><circle cx="128.85467564067417" cy="420.4066273503847" r="40" stroke="#000" fill="#fff" stroke-width="5"></circle><text x="128.85467564067417" y="440.4066273503847" text-anchor="middle" font-family="arial" font-weight="normal" fill="#000" font-size="60">2</text><circle cx="527.4181040357097" cy="456.42128976397197" r="40" stroke="#000" fill="#fff" stroke-width="5"></circle><text x="527.4181040357097" y="476.42128976397197" text-anchor="middle" font-family="arial" font-weight="normal" fill="#000" font-size="60">3</text></g></svg>
