
<svg id="z12492" class="jozu" version="1.1" viewBox="0 0 1024 1024" xmlns="http://www.w3.org/2000/svg" xmlns:xlink="http://www.w3.org/1999/xlink">

<path id="z12492d1" d="M538 194C460 220 378 235 297 245C198 256 308 321 356 300C385 287 415 277 446 266C495 248 544 230 596 225C617 223 642 229 654 248C664 264 659 285 652 301C572 496 439 684 293 817C188 912 279 870 324 837C531 686 636 503 720 328C733 301 755 276 776 254C791 238 779 216 719 169C690 146 671 149 538 194Z"></path>
<path id="z12492d2" d="M407 443C355 426 360 446 370 454C465 537 564 652 572 661C597 687 619 716 649 737C668 750 703 726 694 679C689 652 668 630 650 610C631 588 460 460 407 443Z"></path>
<defs>
	<clipPath id="z12492c1"><use xlink:href="#z12492d1"></use></clipPath>
	<clipPath id="z12492c2"><use xlink:href="#z12492d2"></use></clipPath>
</defs>
<path style="--d:1s;" pathLength="3333" clip-path="url(#z12492c1)" d="M 274,273 677,183 729,238 594,502 445,705 270,854"></path>
<path style="--d:2s;" pathLength="3333" clip-path="url(#z12492c2)" d="M 380,449 629,648 666,727"></path>
<g visibility="var(--visibility)"><circle cx="293.51917186980745" cy="268.64087973130853" r="40" stroke="#000" fill="#fff" stroke-width="5"></circle><text x="293.51917186980745" y="288.64087973130853" text-anchor="middle" font-family="arial" font-weight="normal" fill="#000" font-size="60">1</text><circle cx="395.6234957741322" cy="461.4862476267161" r="40" stroke="#000" fill="#fff" stroke-width="5"></circle><text x="395.6234957741322" y="481.4862476267161" text-anchor="middle" font-family="arial" font-weight="normal" fill="#000" font-size="60">2</text></g></svg>
