
<svg id="z12493" class="jozu" version="1.1" viewBox="0 0 1024 1024" xmlns="http://www.w3.org/2000/svg" xmlns:xlink="http://www.w3.org/1999/xlink">

<path id="z12493d1" d="M443 134C469 169 502 204 529 238C540 253 560 253 570 244C583 231 586 209 573 194C560 178 517 136 458 109C416 90 427 113 443 134Z"></path>
<path id="z12493d2" d="M686 269C601 296 517 324 429 342C375 353 321 361 267 369C188 381 270 438 303 436C334 433 476 373 574 347C662 323 638 366 625 381C534 488 478 529 233 672C157 716 165 742 242 705C307 673 424 623 477 587C508 566 508 566 524 556C566 528 618 486 676 431C711 399 737 379 754 371C785 356 758 316 750 307C731 283 718 259 686 269Z"></path>
<path id="z12493d3" d="M477 587C491 621 488 664 483 737C480 784 470 812 470 834C471 846 479 881 492 904C520 955 549 889 548 868C539 712 540 702 544 598C544 578 533 568 524 556C513 541 470 570 477 587Z"></path>
<path id="z12493d4" d="M599 601C627 631 758 780 778 789C801 800 848 792 820 739C802 704 692 614 614 573C579 554 566 564 599 601Z"></path>
<defs>
	<clipPath id="z12493c1"><use xlink:href="#z12493d1"></use></clipPath>
	<clipPath id="z12493c2"><use xlink:href="#z12493d2"></use></clipPath>
	<clipPath id="z12493c3"><use xlink:href="#z12493d3"></use></clipPath>
	<clipPath id="z12493c4"><use xlink:href="#z12493d4"></use></clipPath>
</defs>
<path style="--d:1s;" pathLength="3333" clip-path="url(#z12493c1)" d="M 442,116 559,240"></path>
<path style="--d:2s;" pathLength="3333" clip-path="url(#z12493c2)" d="M 248,398 310,399 670,307 721,343 527,529 205,709"></path>
<path style="--d:3s;" pathLength="3333" clip-path="url(#z12493c3)" d="M 515,574 516,914"></path>
<path style="--d:4s;" pathLength="3333" clip-path="url(#z12493c4)" d="M 591,581 817,784"></path>
<g visibility="var(--visibilty)"><circle cx="455.72557963118277" cy="130.5467681561253" r="40" stroke="#000" fill="#fff" stroke-width="5"></circle><text x="455.72557963118277" y="150.5467681561253" text-anchor="middle" font-family="arial" font-weight="normal" fill="#000" font-size="60">1</text><circle cx="267.9973990506425" cy="398.3225386943652" r="40" stroke="#000" fill="#fff" stroke-width="5"></circle><text x="267.9973990506425" y="418.3225386943652" text-anchor="middle" font-family="arial" font-weight="normal" fill="#000" font-size="60">2</text><circle cx="515.0588232749864" cy="593.999913495371" r="40" stroke="#000" fill="#fff" stroke-width="5"></circle><text x="515.0588232749864" y="613.999913495371" text-anchor="middle" font-family="arial" font-weight="normal" fill="#000" font-size="60">3</text><circle cx="605.8789702883037" cy="594.364738798786" r="40" stroke="#000" fill="#fff" stroke-width="5"></circle><text x="605.8789702883037" y="614.364738798786" text-anchor="middle" font-family="arial" font-weight="normal" fill="#000" font-size="60">4</text></g></svg>
